<?xml version="1.0" standalone="no"?>
<!DOCTYPE svg PUBLIC "-//W3C//DTD SVG 20010904//EN"
 "http://www.w3.org/TR/2001/REC-SVG-20010904/DTD/svg10.dtd">
<svg version="1.0" xmlns="http://www.w3.org/2000/svg"
 width="1129.000000pt" height="344.000000pt" viewBox="0 0 1129.000000 344.000000"
 preserveAspectRatio="xMidYMid meet">

<g transform="translate(0.000000,344.000000) scale(0.100000,-0.100000)"
fill="#000000" stroke="none">
<path d="M9640 3130 c-250 -21 -819 -68 -1265 -104 -445 -36 -862 -70 -925
-76 -63 -5 -286 -24 -495 -40 -1080 -86 -1505 -120 -1557 -126 l-58 -6 0 -209
0 -209 55 0 55 0 0 159 0 160 43 5 c23 4 296 26 607 51 768 61 1281 103 1425
115 66 6 485 39 930 75 446 36 972 79 1170 95 199 17 364 30 368 30 4 0 7
-581 7 -1290 l0 -1291 -47 6 c-27 3 -223 19 -438 36 -214 17 -941 75 -1615
130 -674 54 -1481 119 -1795 144 -313 25 -589 48 -612 51 l-43 5 0 160 0 159
-55 0 -55 0 0 -209 0 -209 58 -6 c31 -3 309 -26 617 -51 308 -25 1147 -92
1865 -150 2093 -169 2170 -175 2201 -175 l29 0 0 1405 c0 773 -3 1404 -7 1404
-5 -1 -213 -18 -463 -39z"/>
<path d="M8194 2226 c-14 -11 -19 -26 -19 -61 0 -56 20 -75 78 -75 62 0 77 13
77 70 0 31 -6 54 -16 64 -20 20 -93 21 -120 2z"/>
<path d="M1470 2219 c-79 -15 -164 -65 -224 -130 -93 -101 -128 -193 -127
-339 1 -238 149 -423 370 -461 127 -23 285 27 375 117 27 27 63 80 88 131 42
84 43 90 46 197 3 94 1 121 -18 176 -27 82 -68 146 -129 203 -60 57 -115 85
-200 103 -73 15 -114 16 -181 3z m208 -175 c61 -30 96 -69 131 -144 35 -75 37
-210 3 -283 -53 -117 -137 -178 -245 -179 -119 -1 -201 55 -256 172 -22 47
-26 69 -26 145 0 77 4 99 28 150 16 33 40 73 55 89 72 77 211 99 310 50z"/>
<path d="M5264 2189 c-18 -20 -19 -44 -22 -418 -1 -218 0 -406 3 -418 13 -54
84 -73 121 -32 17 19 19 44 24 307 l5 286 109 -173 c60 -94 119 -179 130 -187
27 -19 56 -17 82 4 24 20 94 118 94 131 0 5 4 11 8 13 4 2 34 45 67 96 32 50
63 92 67 92 4 0 8 -123 8 -273 0 -261 1 -274 20 -295 31 -33 92 -30 120 5 20
26 21 33 18 434 -3 387 -4 408 -22 428 -15 17 -29 21 -60 19 l-41 -3 -135
-201 c-74 -111 -146 -216 -160 -233 l-25 -32 -140 218 c-77 119 -149 225 -159
235 -28 25 -88 24 -112 -3z"/>
<path d="M7188 2139 c-31 -12 -48 -52 -48 -115 l0 -44 -45 0 c-113 0 -116
-125 -3 -137 l46 -5 4 -217 c3 -195 5 -219 23 -249 28 -47 81 -72 152 -72 106
0 168 55 129 115 -16 24 -21 25 -66 19 -80 -11 -80 -12 -80 212 l0 194 44 0
c49 0 96 15 108 33 4 7 8 26 8 44 0 44 -30 63 -101 63 l-56 0 -6 61 c-7 85
-47 120 -109 98z"/>
<path d="M2300 2001 c-86 -28 -154 -86 -166 -139 -3 -15 -7 -33 -10 -40 -2 -7
1 -36 7 -63 19 -86 94 -142 234 -174 59 -13 123 -47 135 -71 20 -37 3 -75 -43
-98 -34 -16 -46 -17 -95 -7 -34 6 -73 23 -97 41 -74 55 -101 65 -130 50 -54
-29 -44 -96 22 -146 120 -92 339 -88 434 7 49 49 64 101 49 175 -18 88 -65
124 -226 172 -94 29 -138 59 -142 98 -9 89 151 105 243 24 33 -30 59 -32 88
-9 82 63 -44 176 -207 185 -39 2 -82 0 -96 -5z"/>
<path d="M2972 1989 c-80 -28 -144 -84 -184 -163 -28 -53 -32 -74 -36 -158 -6
-142 29 -234 119 -311 60 -52 126 -72 229 -71 92 1 175 27 218 66 44 42 19
118 -39 118 -13 0 -46 -11 -73 -25 -85 -43 -176 -29 -241 39 -114 118 -75 316
73 372 51 20 134 13 172 -14 37 -27 57 -32 85 -22 39 15 50 86 18 122 -28 32
-112 59 -196 64 -67 4 -94 0 -145 -17z"/>
<path d="M3650 1993 c-102 -35 -175 -114 -206 -222 -23 -76 -15 -229 13 -293
28 -62 100 -138 160 -168 70 -36 178 -35 249 2 27 15 56 34 63 42 17 20 31 20
31 1 0 -26 38 -55 73 -55 75 1 77 11 77 360 l0 301 -25 24 c-31 32 -74 33
-103 2 -12 -13 -22 -31 -22 -40 0 -22 -2 -22 -46 8 -77 52 -181 67 -264 38z
m222 -158 c54 -36 88 -110 88 -191 0 -196 -198 -292 -327 -159 -134 140 -31
401 151 381 29 -3 66 -16 88 -31z"/>
<path d="M4560 1990 c-37 -12 -66 -31 -87 -56 -28 -31 -33 -34 -33 -17 0 11
-9 32 -21 47 -26 33 -79 36 -109 6 -19 -19 -20 -33 -20 -323 0 -344 1 -347 70
-347 30 0 43 6 59 26 20 25 21 40 21 213 0 102 5 203 11 224 5 20 26 54 46 74
l36 36 84 -7 c75 -5 85 -4 103 14 35 35 25 92 -21 115 -37 20 -72 18 -139 -5z"/>
<path d="M6515 1996 c-103 -32 -163 -87 -213 -194 -24 -50 -27 -69 -27 -162 0
-95 3 -111 28 -162 89 -181 312 -247 507 -149 65 32 89 67 74 108 -16 45 -54
52 -119 20 -127 -62 -243 -39 -314 61 -10 15 -22 37 -25 50 l-7 22 219 0 c240
0 275 6 290 49 21 60 -14 171 -81 254 -74 94 -219 139 -332 103z m165 -148
c46 -24 90 -77 90 -109 0 -18 -11 -19 -170 -19 -159 0 -170 1 -170 19 0 56 97
131 170 131 20 0 56 -10 80 -22z"/>
<path d="M7890 1990 c-34 -11 -67 -32 -87 -54 l-33 -35 -6 27 c-10 43 -33 62
-74 62 -25 0 -43 -7 -56 -21 -18 -20 -19 -40 -19 -324 0 -284 1 -304 19 -324
26 -29 86 -29 112 0 17 19 20 43 24 233 4 170 8 217 21 241 37 67 81 86 169
71 46 -8 62 -7 75 4 44 37 38 106 -11 129 -35 16 -70 13 -134 -9z"/>
<path d="M8703 1995 c-101 -31 -171 -93 -215 -192 -18 -39 -22 -67 -23 -148 0
-114 11 -160 57 -229 71 -107 196 -159 334 -139 127 18 216 77 197 130 -19 55
-72 69 -121 33 -66 -49 -193 -34 -254 31 -106 112 -80 299 52 367 63 32 123
29 194 -8 63 -34 87 -33 112 5 22 34 10 80 -30 110 -64 49 -213 69 -303 40z"/>
<path d="M9307 1995 c-99 -32 -167 -133 -152 -226 14 -83 69 -133 187 -168
121 -37 160 -55 181 -83 17 -22 19 -33 11 -55 -27 -81 -175 -77 -270 7 -44 38
-77 47 -108 27 -73 -48 0 -155 132 -193 82 -24 186 -22 247 5 94 42 135 98
135 186 0 113 -45 155 -232 215 -56 18 -103 39 -116 53 -25 26 -28 64 -9 91
30 41 157 34 215 -13 49 -39 73 -44 101 -23 86 63 -37 178 -201 188 -49 2 -89
-1 -121 -11z"/>
<path d="M8200 1970 c-19 -19 -20 -33 -20 -325 0 -292 1 -306 20 -325 12 -12
33 -20 53 -20 74 1 77 12 77 345 0 333 -3 344 -77 345 -20 0 -41 -8 -53 -20z"/>
</g>
</svg>
