<?xml version="1.0" encoding="UTF-8"?>
<svg version="1.1" xmlns="http://www.w3.org/2000/svg" width="246" height="516">
<path d="M0 0 C4.4288891 3.91390199 7.49541556 8.54887844 8.6875 14.375 C8.79100479 17.44333386 8.59419431 20.49746429 8.4375 23.5625 C8.39689453 24.78163086 8.39689453 24.78163086 8.35546875 26.02539062 C8.00722087 33.08583555 6.64551155 39.43798268 2.6875 45.375 C2.23610541 47.4242094 2.23610541 47.4242094 2.0625 49.5625 C1.876875 51.4496875 1.876875 51.4496875 1.6875 53.375 C2.34234375 53.54515625 2.9971875 53.7153125 3.671875 53.890625 C8.76553327 55.24317832 13.76912398 56.71260519 18.75 58.4375 C22.52679015 59.7405171 26.11920122 60.68582883 30.0625 61.3125 C34.99951157 62.23967553 37.32131065 63.59829975 40.6875 67.375 C44.44979148 74.27253438 44.5284243 81.65003855 43.6875 89.375 C43.2268939 90.79359223 42.73491226 92.20222751 42.21875 93.6015625 C40.31039462 98.96251218 40.09713619 104.16639372 39.8125 109.8125 C39.18890491 119.19396901 38.07211306 128.37579915 36.375 137.625 C36.18631348 138.72513428 35.99762695 139.82526855 35.80322266 140.95874023 C34.63662037 146.98367046 33.69396075 150.65000218 28.6875 154.375 C26.28204362 155.57772819 24.73753047 155.47571472 22.0625 155.4375 C21.24523437 155.42847656 20.42796875 155.41945312 19.5859375 155.41015625 C18.64621094 155.39275391 18.64621094 155.39275391 17.6875 155.375 C18.0175 156.365 18.3475 157.355 18.6875 158.375 C19.02863036 160.66258004 19.33636165 162.95520583 19.625 165.25 C19.77839844 166.46429688 19.93179688 167.67859375 20.08984375 168.9296875 C20.17645264 169.61683838 20.26306152 170.30398926 20.35229492 171.01196289 C20.59709261 172.73767071 20.88144501 174.45789898 21.1887207 176.17358398 C22.66638011 184.64219217 23.02825074 192.86061752 23.00317383 201.43041992 C23.00001784 203.67481348 23.02356243 205.9178777 23.04882812 208.16210938 C23.10406116 220.58350867 21.98259215 232.55543106 16.9375 244.0625 C14.64517617 249.68040408 14.55536866 253.56829306 15.265625 259.52734375 C17.67370743 281.48994739 13.31829483 302.22055905 7.91040039 323.41165161 C7.10048494 326.59648377 6.31434321 329.78704089 5.52758789 332.97766113 C4.94740017 335.27332735 4.32564355 337.55491756 3.70117188 339.83886719 C1.61546301 346.87768942 1.61546301 346.87768942 2.76025391 353.84716797 C4.29028484 355.64777866 5.79184291 356.97812438 7.6875 358.375 C10.6875 361.975 10.6875 361.975 10.6875 365.375 C11.97438721 365.36452637 13.26127441 365.35405273 14.5871582 365.34326172 C19.35617294 365.30709456 24.12517552 365.28411146 28.89428711 365.26513672 C30.959412 365.25507165 33.02452263 365.24141846 35.08959961 365.22412109 C38.05586264 365.19989507 41.02193744 365.18852203 43.98828125 365.1796875 C44.9133699 365.16936493 45.83845856 365.15904236 46.7915802 365.14840698 C48.08257881 365.14818039 48.08257881 365.14818039 49.3996582 365.14794922 C50.15688675 365.143508 50.9141153 365.13906677 51.69429016 365.13449097 C53.6875 365.375 53.6875 365.375 56.6875 367.375 C57.84067663 370.35403963 57.7323029 371.24059131 56.6875 374.375 C56.60728001 375.78324893 56.57984023 377.19497231 56.58984375 378.60546875 C56.59306641 379.40791016 56.59628906 380.21035156 56.59960938 381.03710938 C56.60798828 381.87048828 56.61636719 382.70386719 56.625 383.5625 C56.63176758 384.8299707 56.63176758 384.8299707 56.63867188 386.12304688 C56.65044597 388.20706155 56.6683811 390.29103977 56.6875 392.375 C58.70572917 392.27734375 60.72395833 392.1796875 62.7421875 392.08203125 C63.38414062 392.17871094 64.02609375 392.27539062 64.6875 392.375 C67.17861925 396.11167887 66.98363477 399.05370976 66.9375 403.375 C66.94523438 404.09945313 66.95296875 404.82390625 66.9609375 405.5703125 C66.94692063 409.36888493 66.84191944 411.14337084 64.6875 414.375 C63.6975 414.705 62.7075 415.035 61.6875 415.375 C61.3575 427.585 61.0275 439.795 60.6875 452.375 C67.4186212 452.29609037 67.4186212 452.29609037 74.14941406 452.19482422 C75.41350098 452.18733154 75.41350098 452.18733154 76.703125 452.1796875 C77.56196289 452.16921387 78.42080078 452.15874023 79.30566406 452.14794922 C81.92813368 452.39793864 83.50320431 452.90885395 85.6875 454.375 C87.49341979 459.79275938 86.87217264 465.64363528 86.875 471.3125 C86.88724609 472.60091797 86.89949219 473.88933594 86.91210938 475.21679688 C86.91404297 476.45365234 86.91597656 477.69050781 86.91796875 478.96484375 C86.92207764 480.09784912 86.92618652 481.23085449 86.93041992 482.39819336 C86.69020022 485.34191076 86.44448757 487.01186734 84.6875 489.375 C80.98809168 490.74211658 77.10614124 490.52022369 73.21681213 490.51544189 C72.46146508 490.51841302 71.70611802 490.52138414 70.92788166 490.5244453 C68.39535064 490.53312106 65.86286696 490.53463958 63.33032227 490.53613281 C61.5152069 490.54076168 59.70009251 490.54578643 57.88497925 490.55117798 C52.95321986 490.56429496 48.02147409 490.57074525 43.08969998 490.57518864 C40.00946892 490.57811971 36.92924157 490.58222452 33.84901237 490.58669281 C24.21414125 490.60036416 14.57927862 490.61003333 4.94439846 490.6138947 C-6.18285466 490.61837862 -17.30998514 490.63594351 -28.43720096 490.6648953 C-37.03601727 490.68649328 -45.63479901 490.69659793 -54.23364216 490.69793582 C-59.37076441 490.69898494 -64.50777131 490.70491585 -69.64486504 490.72275543 C-74.47526088 490.73920416 -79.30545425 490.74140721 -84.13586807 490.73261642 C-85.90920236 490.73184441 -87.6825474 490.73621039 -89.45585442 490.74607468 C-91.87575499 490.7587471 -94.29493328 490.75294343 -96.71482849 490.74249268 C-97.41736124 490.75054908 -98.11989399 490.75860548 -98.84371561 490.76690602 C-103.13771744 490.72350047 -105.95169041 490.1080296 -109.3125 487.375 C-109.94360352 484.14453125 -109.94360352 484.14453125 -109.94140625 480.1875 C-109.94381821 479.48858643 -109.94623016 478.78967285 -109.94871521 478.06958008 C-109.94773675 476.59352946 -109.93434271 475.11744215 -109.90942383 473.64160156 C-109.87510928 471.38219572 -109.88875852 469.12670032 -109.90820312 466.8671875 C-109.90130451 465.43227502 -109.89163196 463.99737263 -109.87890625 462.5625 C-109.86259155 460.60376953 -109.86259155 460.60376953 -109.84594727 458.60546875 C-109.3125 455.375 -109.3125 455.375 -107.60229492 453.4440918 C-104.90232437 452.18349141 -103.08328692 452.03016069 -100.109375 452.08203125 C-99.22604492 452.08952393 -98.34271484 452.0970166 -97.43261719 452.10473633 C-96.32047852 452.13204834 -95.20833984 452.15936035 -94.0625 452.1875 C-88.74125 452.2803125 -88.74125 452.2803125 -83.3125 452.375 C-83.3125 440.165 -83.3125 427.955 -83.3125 415.375 C-85.2925 414.715 -87.2725 414.055 -89.3125 413.375 C-89.37041844 410.25007749 -89.40606746 407.12529234 -89.4375 404 C-89.45425781 403.11054688 -89.47101563 402.22109375 -89.48828125 401.3046875 C-89.49472656 400.45390625 -89.50117187 399.603125 -89.5078125 398.7265625 C-89.51828613 397.94104004 -89.52875977 397.15551758 -89.53955078 396.34619141 C-89.3125 394.375 -89.3125 394.375 -87.3125 392.375 C-83.6875 392.25 -83.6875 392.25 -80.3125 392.375 C-80.3439209 391.3080188 -80.3439209 391.3080188 -80.37597656 390.21948242 C-80.45905725 387.00063172 -80.51113466 383.78200634 -80.5625 380.5625 C-80.59601563 379.44294922 -80.62953125 378.32339844 -80.6640625 377.16992188 C-80.67695312 376.09677734 -80.68984375 375.02363281 -80.703125 373.91796875 C-80.72407227 372.92821045 -80.74501953 371.93845215 -80.76660156 370.91870117 C-80.3125 368.375 -80.3125 368.375 -78.88671875 366.546875 C-74.89375893 364.72913912 -71.06832276 365.00730717 -66.734375 365.08203125 C-65.8078009 365.08627609 -64.88122681 365.09052094 -63.92657471 365.09489441 C-60.97158566 365.11166678 -58.01728239 365.14931645 -55.0625 365.1875 C-53.05730153 365.2025487 -51.05209235 365.21623678 -49.046875 365.22851562 C-44.13515304 365.26156562 -39.22394274 365.31333818 -34.3125 365.375 C-33.87309082 364.19369507 -33.87309082 364.19369507 -33.42480469 362.98852539 C-32.19563228 360.10040191 -30.87787795 358.88244788 -28.5625 356.8125 C-25.90232471 353.82100174 -25.90232471 353.82100174 -25.27661133 349.98901367 C-25.4598999 349.09931885 -25.64318848 348.20962402 -25.83203125 347.29296875 C-26.04456543 346.23376221 -26.25709961 345.17455566 -26.47607422 344.08325195 C-26.89010498 342.24766724 -26.89010498 342.24766724 -27.3125 340.375 C-27.46793274 339.68014496 -27.62336548 338.98528992 -27.7835083 338.26937866 C-29.25027548 331.74523318 -30.7962849 325.24002465 -32.35083008 318.73632812 C-34.49199019 309.7544989 -36.52738739 300.78081186 -38.078125 291.67578125 C-38.2010643 290.96682709 -38.3240036 290.25787292 -38.45066833 289.5274353 C-40.14370713 279.1042922 -39.83617695 268.92529177 -38 258.5625 C-37.00487092 252.01814419 -38.03383552 248.21428894 -40.93359375 242.3515625 C-46.49871938 230.33845846 -46.54589641 216.47222872 -46.5625 203.5 C-46.56417175 202.81036163 -46.56584351 202.12072327 -46.56756592 201.41018677 C-46.56915848 190.434081 -45.54825613 180.11753557 -43.3125 169.375 C-42.87477552 166.67096175 -42.49963458 163.96407927 -42.125 161.25 C-41.96644531 160.11304688 -41.80789062 158.97609375 -41.64453125 157.8046875 C-41.53496094 157.00289062 -41.42539063 156.20109375 -41.3125 155.375 C-42.529375 155.436875 -43.74625 155.49875 -45 155.5625 C-48.93796709 155.54162738 -51.23855282 155.00981187 -54.3125 152.375 C-56.90037583 147.89469818 -58.2651589 143.40344301 -59.3125 138.375 C-59.48128662 137.579729 -59.65007324 136.78445801 -59.82397461 135.96508789 C-61.6461152 126.71985869 -62.42946419 117.34106695 -63.18554688 107.95898438 C-63.74147217 101.47546295 -64.61382892 95.61708359 -66.66430664 89.43774414 C-68.85694586 82.46011373 -67.69203428 75.0680331 -64.671875 68.53125 C-60.03049687 61.16906401 -51.29581739 60.15934524 -43.3828125 58.35546875 C-38.66496207 57.26339436 -34.1325263 55.72541804 -29.5703125 54.109375 C-27.3125 53.375 -27.3125 53.375 -25.3125 53.375 C-25.52660508 48.75033032 -25.83141421 44.83148829 -28.25 40.8125 C-32.91951107 32.24317748 -33.1448965 20.27815233 -31.12890625 10.93359375 C-29.28755006 5.16283633 -26.61599932 1.81789909 -21.25 -1 C-13.7216135 -4.42877009 -7.42340305 -3.64166942 0 0 Z " fill="#2B2A2F" transform="translate(135.3125,14.625)"/>
<path d="M0 0 C4.27738156 1.79818366 7.15986463 3.70615308 9.70703125 7.62890625 C11.32145294 11.83810843 11.454654 15.34721805 11.375 19.8125 C11.36702393 20.61059082 11.35904785 21.40868164 11.35083008 22.23095703 C11.19367628 28.72266867 10.67863061 34.82532669 6.3125 40 C4.1234494 43.33569616 4.64528248 47.12539327 5 51 C5.04125 51.70382813 5.0825 52.40765625 5.125 53.1328125 C5.89777659 55.2931526 5.89777659 55.2931526 8.640625 56.2734375 C10.42726562 56.81871094 10.42726562 56.81871094 12.25 57.375 C12.89807617 57.57851074 13.54615234 57.78202148 14.21386719 57.99169922 C18.30742534 59.25748302 22.43323671 60.40395391 26.5625 61.546875 C27.50448242 61.80936035 28.44646484 62.0718457 29.41699219 62.34228516 C31.28441536 62.85822437 33.15485641 63.36337957 35.02832031 63.85693359 C36.32141113 64.21005615 36.32141113 64.21005615 37.640625 64.5703125 C38.40922852 64.77414551 39.17783203 64.97797852 39.96972656 65.18798828 C42.29032226 66.11611494 43.43233242 67.0659945 45 69 C47.47972881 75.52560212 48.32382209 81.88214578 45.5703125 88.3671875 C43.38353847 93.9413555 43.17407851 99.73353413 42.72073364 105.65612793 C41.92186689 115.91182059 40.91338112 126.12416433 39.0625 136.25 C38.9169165 137.10553467 38.77133301 137.96106934 38.62133789 138.8425293 C37.98406872 142.10444332 37.44673071 144.50298791 35.1953125 147.0078125 C32.6439759 148.16090769 30.60406708 148.46830938 27.8125 148.625 C24.60001231 148.57027072 24.60001231 148.57027072 22 150 C21.29564879 158.3709432 22.3879469 166.14616322 24.24609375 174.296875 C28.98424827 197.57029718 27.70841369 224.16746406 18 246 C17.67 246.33 17.34 246.66 17 247 C17.06512987 248.54535407 17.20317333 250.08784786 17.375 251.625 C17.46523437 252.46289062 17.55546875 253.30078125 17.6484375 254.1640625 C17.90735409 256.25265632 18.20168609 258.33693432 18.515625 260.41796875 C21.52131791 282.64555259 14.8986369 305.3058742 9.359375 326.66796875 C5.60077871 339.69362685 5.60077871 339.69362685 5 353 C6.90034203 355.43812046 6.90034203 355.43812046 9.4375 357.5 C13.8077207 361.27521413 13.96187826 361.77126959 15 368 C36.78 368.495 36.78 368.495 59 369 C59.33 376.59 59.66 384.18 60 392 C18.42 392 -23.16 392 -66 392 C-66 384.41 -66 376.82 -66 369 C-51.48 368.67 -36.96 368.34 -22 368 C-21.01 365.36 -20.02 362.72 -19 360 C-17.17578125 358.0390625 -17.17578125 358.0390625 -15.3125 356.625 C-13.36115334 354.7975917 -12.14470503 353.63592623 -11.54467773 350.99902344 C-11.58996086 343.62979075 -13.29261843 336.78523839 -15.19137573 329.70861816 C-16.13891927 326.1743662 -17.04719564 322.63005071 -17.95703125 319.0859375 C-18.13665909 318.38936035 -18.31628693 317.6927832 -18.50135803 316.97509766 C-20.39156386 309.58522306 -21.89986611 302.13552228 -23.30859375 294.640625 C-23.66021132 292.78916978 -24.01877392 290.93407278 -24.53491211 289.12158203 C-25.10750305 286.5096055 -25.12973203 284.08835046 -25.1328125 281.4140625 C-25.13442383 280.32472412 -25.13603516 279.23538574 -25.13769531 278.11303711 C-25.13350586 276.96198486 -25.12931641 275.81093262 -25.125 274.625 C-25.1259668 273.45138916 -25.12693359 272.27777832 -25.12792969 271.06860352 C-25.10933904 264.96706992 -24.90380741 259.00189728 -24.25 252.9375 C-23.79649948 247.81042465 -24.47676194 244.70091899 -26.8828125 240.1875 C-37.63570547 219.13288439 -33.82386387 190.28588167 -30 168 C-29.59439589 165.50140845 -29.20267999 163.00108184 -28.8125 160.5 C-28.65394531 159.5409375 -28.49539062 158.581875 -28.33203125 157.59375 C-27.99693848 154.97608416 -27.7253484 152.6294514 -28 150 C-31.71404295 147.52397136 -33.47473512 147.99155562 -37.74609375 148.41796875 C-40 148 -40 148 -42.15234375 146.0625 C-44.56627542 142.0613955 -45.32942601 138.38051002 -46.125 133.8125 C-46.29185303 132.90991455 -46.45870605 132.0073291 -46.63061523 131.07739258 C-48.13109871 122.39870202 -48.78593679 113.67456283 -49.22900391 104.8840332 C-49.54527191 99.37832733 -50.17380143 94.93190873 -52.33422852 89.86157227 C-53.50922323 86.57615433 -53.47411858 83.33046267 -53.4375 79.875 C-53.45748047 79.19824219 -53.47746094 78.52148438 -53.49804688 77.82421875 C-53.49314803 72.75881632 -52.36052199 69.76870519 -49 66 C-46.390625 64.8046875 -46.390625 64.8046875 -43 64 C-41.38915713 63.54948673 -39.7799167 63.09322413 -38.171875 62.6328125 C-35.46634962 61.87842513 -32.76000145 61.12773556 -30.05078125 60.38671875 C-23.84988262 58.64974715 -17.93063262 56.50763662 -12 54 C-11.91873913 51.91731407 -11.86069161 49.83371342 -11.8125 47.75 C-11.77769531 46.58984375 -11.74289063 45.4296875 -11.70703125 44.234375 C-12.02950132 40.67430541 -12.6913106 39.61614199 -15 37 C-17.61628099 32.51494687 -17.70023607 28.09598675 -18 23 C-18.06574219 21.98550781 -18.13148437 20.97101562 -18.19921875 19.92578125 C-18.43935863 13.32607491 -18.15057101 9.24282654 -14 4 C-9.6982833 0.18711474 -5.66268937 -1.2172136 0 0 Z " fill="#FCBF1E" transform="translate(127,17)"/>
<path d="M0 0 C0.66 0.99 1.32 1.98 2 3 C4.8393592 4.27188801 4.8393592 4.27188801 8.3125 5.3125 C8.95606445 5.52052246 9.59962891 5.72854492 10.26269531 5.94287109 C14.33649834 7.23751997 18.4388934 8.41141005 22.55859375 9.55078125 C23.50114014 9.81270264 24.44368652 10.07462402 25.41479492 10.34448242 C27.28324483 10.85885721 29.15449438 11.36318378 31.02856445 11.85668945 C31.89054443 12.09218506 32.75252441 12.32768066 33.640625 12.5703125 C34.40922852 12.77414551 35.17783203 12.97797852 35.96972656 13.18798828 C38.29032226 14.11611494 39.43233242 15.0659945 41 17 C43.47972881 23.52560212 44.32382209 29.88214578 41.5703125 36.3671875 C39.38353847 41.9413555 39.17407851 47.73353413 38.72073364 53.65612793 C37.92186689 63.91182059 36.91338112 74.12416433 35.0625 84.25 C34.9169165 85.10553467 34.77133301 85.96106934 34.62133789 86.8425293 C33.98406872 90.10444332 33.44673071 92.50298791 31.1953125 95.0078125 C28.6439759 96.16090769 26.60406708 96.46830938 23.8125 96.625 C20.60001231 96.57027072 20.60001231 96.57027072 18 98 C17.29564879 106.3709432 18.3879469 114.14616322 20.24609375 122.296875 C24.98424827 145.57029718 23.70841369 172.16746406 14 194 C13.67 194.33 13.34 194.66 13 195 C13.06512987 196.54535407 13.20317333 198.08784786 13.375 199.625 C13.46523437 200.46289062 13.55546875 201.30078125 13.6484375 202.1640625 C13.90735409 204.25265632 14.20168609 206.33693432 14.515625 208.41796875 C17.52131791 230.64555259 10.8986369 253.3058742 5.359375 274.66796875 C1.60077871 287.69362685 1.60077871 287.69362685 1 301 C2.90034203 303.43812046 2.90034203 303.43812046 5.4375 305.5 C9.8077207 309.27521413 9.96187826 309.77126959 11 316 C25.52 316.33 40.04 316.66 55 317 C55 317.66 55 318.32 55 319 C33.55 319 12.1 319 -10 319 C-10 317.35 -10 315.7 -10 314 C-8.02 314 -6.04 314 -4 314 C-4.21242718 313.43430361 -4.42485435 312.86860722 -4.64371872 312.28576851 C-7.76518423 302.72112354 -7.40775982 293.25593989 -7.35644531 283.31591797 C-7.35723723 281.33564666 -7.35933767 279.35537552 -7.36264038 277.37510681 C-7.36774968 272.02661298 -7.35429219 266.67831336 -7.33711338 261.32985067 C-7.32203006 255.72894879 -7.32325043 250.12804892 -7.32244873 244.52713013 C-7.31876384 235.13426412 -7.30382932 225.74147153 -7.28125 216.34863281 C-7.25229092 204.27695745 -7.24201777 192.20534089 -7.2375679 180.13363457 C-7.23359575 169.75999431 -7.22109985 159.38636691 -7.20722103 149.01273584 C-7.20311693 145.67312175 -7.20019412 142.33350811 -7.19742584 138.99389267 C-7.1925479 133.76210073 -7.18237019 128.53034481 -7.16798782 123.29857063 C-7.16345076 121.37359123 -7.16062285 119.44860698 -7.15958023 117.52362251 C-7.15784493 114.9080355 -7.14999011 112.29253985 -7.14044189 109.67697144 C-7.14130838 108.90530699 -7.14217486 108.13364254 -7.1430676 107.33859432 C-7.11420868 102.11420868 -7.11420868 102.11420868 -6 101 C-4.27942879 100.62481582 -2.54780262 100.29975538 -0.8125 100 C0.1775 99.82726562 1.1675 99.65453125 2.1875 99.4765625 C3.115625 99.31929688 4.04375 99.16203125 5 99 C6.8253125 98.690625 6.8253125 98.690625 8.6875 98.375 C9.8321875 98.189375 9.8321875 98.189375 11 98 C11 97.34 11 96.68 11 96 C5.06 95.67 -0.88 95.34 -7 95 C-7 89.06 -7 83.12 -7 77 C-5.515 76.505 -5.515 76.505 -4 76 C-4 70.06 -4 64.12 -4 58 C-2.35 58 -0.7 58 1 58 C3.48288836 60.48288836 3.28583167 62.01186156 3.32226562 65.41015625 C3.31904297 66.09980469 3.31582031 66.78945312 3.3125 67.5 C3.32861328 68.18964844 3.34472656 68.87929687 3.36132812 69.58984375 C3.36328125 71.59375 3.36328125 71.59375 3 75 C2.01 75.66 1.02 76.32 0 77 C2.194898 79.30850555 3.98282771 80.84696006 7.19384766 81.33007812 C9.74340363 81.39306775 12.26413802 81.34881791 14.8125 81.25 C15.69615234 81.23195313 16.57980469 81.21390625 17.49023438 81.1953125 C19.66062543 81.14838513 21.83045519 81.07664731 24 81 C25.83343335 73.5443133 26.25165491 66.53275043 26.125 58.875 C26.11597656 57.823125 26.10695312 56.77125 26.09765625 55.6875 C26.07435853 53.12475122 26.04165112 50.56250488 26 48 C25.34 48 24.68 48 24 48 C23.731875 48.804375 23.46375 49.60875 23.1875 50.4375 C22.795625 51.283125 22.40375 52.12875 22 53 C19.05868109 53.98043964 17.17498335 54.11621202 14.11328125 54.09765625 C13.17548828 54.09443359 12.23769531 54.09121094 11.27148438 54.08789062 C9.80678711 54.07532227 9.80678711 54.07532227 8.3125 54.0625 C6.83040039 54.05573242 6.83040039 54.05573242 5.31835938 54.04882812 C2.87884526 54.03704303 0.43945311 54.02059011 -2 54 C-2.0501123 53.44538086 -2.10022461 52.89076172 -2.15185547 52.31933594 C-2.38461674 49.79538036 -2.62968036 47.27276461 -2.875 44.75 C-2.95363281 43.87730469 -3.03226563 43.00460938 -3.11328125 42.10546875 C-3.19707031 41.26113281 -3.28085938 40.41679688 -3.3671875 39.546875 C-3.44050293 38.77182617 -3.51381836 37.99677734 -3.58935547 37.19824219 C-4.02959357 34.84158115 -4.83377654 33.08343123 -6 31 C-6.01458252 31.55461914 -6.02916504 32.10923828 -6.04418945 32.68066406 C-6.11886897 35.20446242 -6.21546025 37.72696654 -6.3125 40.25 C-6.33505859 41.12269531 -6.35761719 41.99539062 -6.38085938 42.89453125 C-6.52990972 46.44463946 -6.70289301 49.31500334 -8.125 52.59375 C-10.95134582 54.71350936 -13.21295546 54.38760572 -16.6875 54.25 C-17.86699219 54.21390625 -19.04648438 54.1778125 -20.26171875 54.140625 C-21.16535156 54.09421875 -22.06898437 54.0478125 -23 54 C-22.51660156 53.26716797 -22.51660156 53.26716797 -22.0234375 52.51953125 C-20.57294075 48.94865186 -20.63156001 45.48246607 -20.625 41.6875 C-20.58826172 40.58631836 -20.58826172 40.58631836 -20.55078125 39.46289062 C-20.51399519 32.55324251 -22.87509904 28.0080517 -27.75 23.0625 C-28.4925 22.381875 -29.235 21.70125 -30 21 C-27.7089095 20.80558632 -25.41709663 20.61966865 -23.125 20.4375 C-21.84882812 20.33308594 -20.57265625 20.22867188 -19.2578125 20.12109375 C-16 20 -16 20 -14 21 C-6.18444154 21.39077792 1.29210236 20.22800076 9 19 C9 18.34 9 17.68 9 17 C1.08 17 -6.84 17 -15 17 C-13.02 14.36 -11.04 11.72 -9 9 C-8.34 9 -7.68 9 -7 9 C-7.103125 8.2575 -7.20625 7.515 -7.3125 6.75 C-7 4 -7 4 -4.625 1.6875 C-2 0 -2 0 0 0 Z " fill="#FCC221" transform="translate(131,69)"/>
<path d="M0 0 C4.4288891 3.91390199 7.49541556 8.54887844 8.6875 14.375 C8.79100479 17.44333386 8.59419431 20.49746429 8.4375 23.5625 C8.39689453 24.78163086 8.39689453 24.78163086 8.35546875 26.02539062 C8.00722087 33.08583555 6.64551155 39.43798268 2.6875 45.375 C2.23610541 47.4242094 2.23610541 47.4242094 2.0625 49.5625 C1.876875 51.4496875 1.876875 51.4496875 1.6875 53.375 C2.34234375 53.54515625 2.9971875 53.7153125 3.671875 53.890625 C8.76553327 55.24317832 13.76912398 56.71260519 18.75 58.4375 C22.52679015 59.7405171 26.11920122 60.68582883 30.0625 61.3125 C34.99951157 62.23967553 37.32131065 63.59829975 40.6875 67.375 C44.44979148 74.27253438 44.5284243 81.65003855 43.6875 89.375 C43.2268939 90.79359223 42.73491226 92.20222751 42.21875 93.6015625 C40.31039462 98.96251218 40.09713619 104.16639372 39.8125 109.8125 C39.18890491 119.19396901 38.07211306 128.37579915 36.375 137.625 C36.18631348 138.72513428 35.99762695 139.82526855 35.80322266 140.95874023 C34.63662037 146.98367046 33.69396075 150.65000218 28.6875 154.375 C26.28204362 155.57772819 24.73753047 155.47571472 22.0625 155.4375 C21.24523437 155.42847656 20.42796875 155.41945312 19.5859375 155.41015625 C18.64621094 155.39275391 18.64621094 155.39275391 17.6875 155.375 C18.0175 156.365 18.3475 157.355 18.6875 158.375 C19.02863036 160.66258004 19.33636165 162.95520583 19.625 165.25 C19.77839844 166.46429688 19.93179688 167.67859375 20.08984375 168.9296875 C20.17645264 169.61683838 20.26306152 170.30398926 20.35229492 171.01196289 C20.59709261 172.73767071 20.88144501 174.45789898 21.1887207 176.17358398 C22.66638011 184.64219217 23.02825074 192.86061752 23.00317383 201.43041992 C23.00001784 203.67481348 23.02356243 205.9178777 23.04882812 208.16210938 C23.10406116 220.58350867 21.98259215 232.55543106 16.9375 244.0625 C14.64517617 249.68040408 14.55536866 253.56829306 15.265625 259.52734375 C17.67370743 281.48994739 13.31829483 302.22055905 7.91040039 323.41165161 C7.10048494 326.59648377 6.31434321 329.78704089 5.52758789 332.97766113 C4.94740017 335.27332735 4.32564355 337.55491756 3.70117188 339.83886719 C1.61546301 346.87768942 1.61546301 346.87768942 2.76025391 353.84716797 C4.29028484 355.64777866 5.79184291 356.97812438 7.6875 358.375 C10.6875 361.975 10.6875 361.975 10.6875 365.375 C11.97438721 365.36452637 13.26127441 365.35405273 14.5871582 365.34326172 C19.35617294 365.30709456 24.12517552 365.28411146 28.89428711 365.26513672 C30.959412 365.25507165 33.02452263 365.24141846 35.08959961 365.22412109 C38.05586264 365.19989507 41.02193744 365.18852203 43.98828125 365.1796875 C44.9133699 365.16936493 45.83845856 365.15904236 46.7915802 365.14840698 C48.08257881 365.14818039 48.08257881 365.14818039 49.3996582 365.14794922 C50.15688675 365.143508 50.9141153 365.13906677 51.69429016 365.13449097 C53.6875 365.375 53.6875 365.375 56.6875 367.375 C57.84067663 370.35403963 57.7323029 371.24059131 56.6875 374.375 C56.60728001 375.78324893 56.57984023 377.19497231 56.58984375 378.60546875 C56.59306641 379.40791016 56.59628906 380.21035156 56.59960938 381.03710938 C56.60798828 381.87048828 56.61636719 382.70386719 56.625 383.5625 C56.63176758 384.8299707 56.63176758 384.8299707 56.63867188 386.12304688 C56.65044597 388.20706155 56.6683811 390.29103977 56.6875 392.375 C58.70572917 392.27734375 60.72395833 392.1796875 62.7421875 392.08203125 C63.38414062 392.17871094 64.02609375 392.27539062 64.6875 392.375 C67.17861925 396.11167887 66.98363477 399.05370976 66.9375 403.375 C66.94523438 404.09945313 66.95296875 404.82390625 66.9609375 405.5703125 C66.94692063 409.36888493 66.84191944 411.14337084 64.6875 414.375 C63.6975 414.705 62.7075 415.035 61.6875 415.375 C61.3575 427.585 61.0275 439.795 60.6875 452.375 C67.4186212 452.29609037 67.4186212 452.29609037 74.14941406 452.19482422 C75.41350098 452.18733154 75.41350098 452.18733154 76.703125 452.1796875 C77.56196289 452.16921387 78.42080078 452.15874023 79.30566406 452.14794922 C81.92813368 452.39793864 83.50320431 452.90885395 85.6875 454.375 C87.49341979 459.79275938 86.87217264 465.64363528 86.875 471.3125 C86.88724609 472.60091797 86.89949219 473.88933594 86.91210938 475.21679688 C86.91404297 476.45365234 86.91597656 477.69050781 86.91796875 478.96484375 C86.92207764 480.09784912 86.92618652 481.23085449 86.93041992 482.39819336 C86.69020022 485.34191076 86.44448757 487.01186734 84.6875 489.375 C80.98809168 490.74211658 77.10614124 490.52022369 73.21681213 490.51544189 C72.46146508 490.51841302 71.70611802 490.52138414 70.92788166 490.5244453 C68.39535064 490.53312106 65.86286696 490.53463958 63.33032227 490.53613281 C61.5152069 490.54076168 59.70009251 490.54578643 57.88497925 490.55117798 C52.95321986 490.56429496 48.02147409 490.57074525 43.08969998 490.57518864 C40.00946892 490.57811971 36.92924157 490.58222452 33.84901237 490.58669281 C24.21414125 490.60036416 14.57927862 490.61003333 4.94439846 490.6138947 C-6.18285466 490.61837862 -17.30998514 490.63594351 -28.43720096 490.6648953 C-37.03601727 490.68649328 -45.63479901 490.69659793 -54.23364216 490.69793582 C-59.37076441 490.69898494 -64.50777131 490.70491585 -69.64486504 490.72275543 C-74.47526088 490.73920416 -79.30545425 490.74140721 -84.13586807 490.73261642 C-85.90920236 490.73184441 -87.6825474 490.73621039 -89.45585442 490.74607468 C-91.87575499 490.7587471 -94.29493328 490.75294343 -96.71482849 490.74249268 C-97.41736124 490.75054908 -98.11989399 490.75860548 -98.84371561 490.76690602 C-103.13771744 490.72350047 -105.95169041 490.1080296 -109.3125 487.375 C-109.94360352 484.14453125 -109.94360352 484.14453125 -109.94140625 480.1875 C-109.94381821 479.48858643 -109.94623016 478.78967285 -109.94871521 478.06958008 C-109.94773675 476.59352946 -109.93434271 475.11744215 -109.90942383 473.64160156 C-109.87510928 471.38219572 -109.88875852 469.12670032 -109.90820312 466.8671875 C-109.90130451 465.43227502 -109.89163196 463.99737263 -109.87890625 462.5625 C-109.86259155 460.60376953 -109.86259155 460.60376953 -109.84594727 458.60546875 C-109.3125 455.375 -109.3125 455.375 -107.60229492 453.4440918 C-104.90232437 452.18349141 -103.08328692 452.03016069 -100.109375 452.08203125 C-99.22604492 452.08952393 -98.34271484 452.0970166 -97.43261719 452.10473633 C-96.32047852 452.13204834 -95.20833984 452.15936035 -94.0625 452.1875 C-88.74125 452.2803125 -88.74125 452.2803125 -83.3125 452.375 C-83.3125 440.165 -83.3125 427.955 -83.3125 415.375 C-85.2925 414.715 -87.2725 414.055 -89.3125 413.375 C-89.37041844 410.25007749 -89.40606746 407.12529234 -89.4375 404 C-89.45425781 403.11054688 -89.47101563 402.22109375 -89.48828125 401.3046875 C-89.49472656 400.45390625 -89.50117187 399.603125 -89.5078125 398.7265625 C-89.51828613 397.94104004 -89.52875977 397.15551758 -89.53955078 396.34619141 C-89.3125 394.375 -89.3125 394.375 -87.3125 392.375 C-83.6875 392.25 -83.6875 392.25 -80.3125 392.375 C-80.3439209 391.3080188 -80.3439209 391.3080188 -80.37597656 390.21948242 C-80.45905725 387.00063172 -80.51113466 383.78200634 -80.5625 380.5625 C-80.59601563 379.44294922 -80.62953125 378.32339844 -80.6640625 377.16992188 C-80.67695312 376.09677734 -80.68984375 375.02363281 -80.703125 373.91796875 C-80.72407227 372.92821045 -80.74501953 371.93845215 -80.76660156 370.91870117 C-80.3125 368.375 -80.3125 368.375 -78.88671875 366.546875 C-74.89375893 364.72913912 -71.06832276 365.00730717 -66.734375 365.08203125 C-65.8078009 365.08627609 -64.88122681 365.09052094 -63.92657471 365.09489441 C-60.97158566 365.11166678 -58.01728239 365.14931645 -55.0625 365.1875 C-53.05730153 365.2025487 -51.05209235 365.21623678 -49.046875 365.22851562 C-44.13515304 365.26156562 -39.22394274 365.31333818 -34.3125 365.375 C-33.87309082 364.19369507 -33.87309082 364.19369507 -33.42480469 362.98852539 C-32.19563228 360.10040191 -30.87787795 358.88244788 -28.5625 356.8125 C-25.90232471 353.82100174 -25.90232471 353.82100174 -25.27661133 349.98901367 C-25.4598999 349.09931885 -25.64318848 348.20962402 -25.83203125 347.29296875 C-26.04456543 346.23376221 -26.25709961 345.17455566 -26.47607422 344.08325195 C-26.89010498 342.24766724 -26.89010498 342.24766724 -27.3125 340.375 C-27.46793274 339.68014496 -27.62336548 338.98528992 -27.7835083 338.26937866 C-29.25027548 331.74523318 -30.7962849 325.24002465 -32.35083008 318.73632812 C-34.49199019 309.7544989 -36.52738739 300.78081186 -38.078125 291.67578125 C-38.2010643 290.96682709 -38.3240036 290.25787292 -38.45066833 289.5274353 C-40.14370713 279.1042922 -39.83617695 268.92529177 -38 258.5625 C-37.00487092 252.01814419 -38.03383552 248.21428894 -40.93359375 242.3515625 C-46.49871938 230.33845846 -46.54589641 216.47222872 -46.5625 203.5 C-46.56417175 202.81036163 -46.56584351 202.12072327 -46.56756592 201.41018677 C-46.56915848 190.434081 -45.54825613 180.11753557 -43.3125 169.375 C-42.87477552 166.67096175 -42.49963458 163.96407927 -42.125 161.25 C-41.96644531 160.11304688 -41.80789062 158.97609375 -41.64453125 157.8046875 C-41.53496094 157.00289062 -41.42539063 156.20109375 -41.3125 155.375 C-42.529375 155.436875 -43.74625 155.49875 -45 155.5625 C-48.93796709 155.54162738 -51.23855282 155.00981187 -54.3125 152.375 C-56.90037583 147.89469818 -58.2651589 143.40344301 -59.3125 138.375 C-59.48128662 137.579729 -59.65007324 136.78445801 -59.82397461 135.96508789 C-61.6461152 126.71985869 -62.42946419 117.34106695 -63.18554688 107.95898438 C-63.74147217 101.47546295 -64.61382892 95.61708359 -66.66430664 89.43774414 C-68.85694586 82.46011373 -67.69203428 75.0680331 -64.671875 68.53125 C-60.03049687 61.16906401 -51.29581739 60.15934524 -43.3828125 58.35546875 C-38.66496207 57.26339436 -34.1325263 55.72541804 -29.5703125 54.109375 C-27.3125 53.375 -27.3125 53.375 -25.3125 53.375 C-25.52660508 48.75033032 -25.83141421 44.83148829 -28.25 40.8125 C-32.91951107 32.24317748 -33.1448965 20.27815233 -31.12890625 10.93359375 C-29.28755006 5.16283633 -26.61599932 1.81789909 -21.25 -1 C-13.7216135 -4.42877009 -7.42340305 -3.64166942 0 0 Z M-24.6875 9.375 C-27.29669494 14.43099186 -26.65103393 19.85266528 -26.3125 25.375 C-26.291875 26.27089844 -26.27125 27.16679688 -26.25 28.08984375 C-26.02578875 32.63712811 -25.47556938 35.49951205 -22.75 39.1875 C-19.02038209 44.38538702 -19.89246161 50.25177374 -20.3125 56.375 C-29.94960633 60.2917569 -39.44298421 63.39941234 -49.65917969 65.46166992 C-53.73883351 66.36451081 -55.81254266 66.87271367 -58.828125 69.90234375 C-61.33134709 74.07218476 -61.52773175 77.2106733 -61.5625 82 C-61.583125 82.68707031 -61.60375 83.37414062 -61.625 84.08203125 C-61.65298438 87.81095039 -61.32622248 90.69484258 -59.85546875 94.13671875 C-57.65762864 99.45000696 -57.66143004 104.87967761 -57.375 110.5625 C-56.81949313 119.19738216 -56.01118694 127.67469713 -54.4375 136.1875 C-54.28804932 137.04561279 -54.13859863 137.90372559 -53.98461914 138.7878418 C-53.04851925 143.53736245 -52.04362171 147.01631331 -48.3125 150.375 C-46.05856335 150.90142533 -46.05856335 150.90142533 -43.75 150.5625 C-39.58907993 150.19061338 -39.58907993 150.19061338 -36.3125 152.375 C-36.71712549 161.30466607 -37.79758666 169.7499466 -39.59375 178.48828125 C-43.83969239 201.44867622 -42.71085444 226.80611463 -33.3125 248.375 C-32.9825 248.705 -32.6525 249.035 -32.3125 249.375 C-32.41039102 251.19072051 -32.57060175 253.00301392 -32.75 254.8125 C-34.02156225 271.61774165 -34.54236069 287.97079187 -29.87255859 304.26171875 C-28.82562567 308.21213346 -28.12954789 312.23549724 -27.375 316.25 C-26.06508609 323.09920571 -24.43138908 329.78330577 -22.5625 336.5 C-18.73941824 350.73484821 -18.73941824 350.73484821 -20.3125 355.375 C-22.16646123 357.65164766 -24.06847859 359.46800809 -26.3671875 361.29296875 C-29.0104008 363.80495634 -29.0104008 363.80495634 -30.3125 370.375 C-44.8325 370.705 -59.3525 371.035 -74.3125 371.375 C-74.3125 377.645 -74.3125 383.915 -74.3125 390.375 C-74.9725 392.355 -75.6325 394.335 -76.3125 396.375 C-78.9525 396.705 -81.5925 397.035 -84.3125 397.375 C-84.3125 401.335 -84.3125 405.295 -84.3125 409.375 C-82.6625 410.035 -81.0125 410.695 -79.3125 411.375 C-79.3125 426.885 -79.3125 442.395 -79.3125 458.375 C-87.5625 458.375 -95.8125 458.375 -104.3125 458.375 C-104.3125 466.955 -104.3125 475.535 -104.3125 484.375 C-43.2625 484.375 17.7875 484.375 80.6875 484.375 C80.6875 475.795 80.6875 467.215 80.6875 458.375 C73.20843961 458.08593216 73.20843961 458.08593216 65.72900391 457.80688477 C64.80007324 457.76877686 63.87114258 457.73066895 62.9140625 457.69140625 C61.96096191 457.65474854 61.00786133 457.61809082 60.02587891 457.58032227 C57.6875 457.375 57.6875 457.375 55.6875 456.375 C55.6875 441.525 55.6875 426.675 55.6875 411.375 C57.6675 410.715 59.6475 410.055 61.6875 409.375 C61.6875 405.415 61.6875 401.455 61.6875 397.375 C58.7175 397.045 55.7475 396.715 52.6875 396.375 C50.65991249 388.26464996 51.08514263 379.72549515 50.6875 371.375 C28.9075 370.88 28.9075 370.88 6.6875 370.375 C5.6975 366.91 5.6975 366.91 4.6875 363.375 C2.68143963 361.30167527 0.57463513 359.68094367 -1.73046875 357.953125 C-6.05540315 350.90508375 -1.30081936 339.14392928 0.46966553 331.66503906 C1.27380627 328.26593141 2.05301179 324.86107569 2.8359375 321.45703125 C2.99341461 320.77524811 3.15089172 320.09346497 3.31314087 319.39102173 C4.80791783 312.90203369 6.20600319 306.39429085 7.5625 299.875 C7.76520508 298.90989502 7.96791016 297.94479004 8.17675781 296.95043945 C10.96013496 283.50345893 11.87823686 270.44340943 9.125 256.92578125 C8.37444484 252.54977658 8.34821057 249.50804273 10.4375 245.5625 C13.61909512 238.84831529 15.05319166 231.58744056 16.6875 224.375 C16.86619629 223.60953857 17.04489258 222.84407715 17.22900391 222.05541992 C18.08293782 217.06322585 17.87341779 212.00214847 17.87280273 206.94946289 C17.87495934 204.97472985 17.89337834 203.00003601 17.91210938 201.02539062 C17.92782649 190.57351073 16.91784205 180.50153525 14.5625 170.3125 C13.31177813 164.40357777 13.29749277 158.3883673 13.6875 152.375 C15.6653566 150.3971434 19.46135744 151.00216901 22.14453125 150.8515625 C25.29999542 150.26021591 26.52571023 149.7801081 28.6875 147.375 C29.59771954 144.39609968 30.2307842 141.67621891 30.75 138.625 C30.9142749 137.72628174 31.0785498 136.82756348 31.24780273 135.90161133 C32.94196951 126.02075631 33.7961074 116.02807539 34.56079102 106.03808594 C35.12579417 99.21988983 36.00557623 93.65961701 38.6875 87.375 C39.58709744 81.88039993 38.49999404 76.64841439 37.125 71.3203125 C34.78590246 68.15490333 31.31515534 67.46577051 27.6875 66.375 C26.46184326 66.00592529 26.46184326 66.00592529 25.21142578 65.62939453 C22.56335402 64.85585116 19.90871559 64.11108276 17.25 63.375 C13.72329568 62.39436679 10.20376045 61.39239178 6.6875 60.375 C5.8197998 60.13910156 4.95209961 59.90320313 4.05810547 59.66015625 C3.2435791 59.42167969 2.42905273 59.18320313 1.58984375 58.9375 C0.86144287 58.73253906 0.13304199 58.52757812 -0.61743164 58.31640625 C-2.3125 57.375 -2.3125 57.375 -3.04150391 55.41162109 C-3.99037573 48.28055014 -3.71741076 44.33458515 0.6875 38.375 C2.63605274 32.92588935 3.02380544 28.0210437 3 22.3125 C3.01611328 21.53583984 3.03222656 20.75917969 3.04882812 19.95898438 C3.05300042 15.03150493 2.45498601 11.61468747 -0.3125 7.375 C-3.7407448 4.10638522 -7.67846613 2.07739824 -12.4375 1.8125 C-18.32164334 2.66664984 -21.03671318 4.7634798 -24.6875 9.375 Z " fill="#040200" transform="translate(135.3125,14.625)"/>
<path d="M0 0 C0.66 0 1.32 0 2 0 C2.37125 0.845625 2.7425 1.69125 3.125 2.5625 C5.48066945 6.88122732 8.477358 11.738679 13 14 C13.70560342 34.81697463 14.0776285 55.62407805 14.160923 76.4529953 C14.17584713 80.16482269 14.19350952 83.87662814 14.21188354 87.58843994 C14.31072889 108.03182497 14.31072889 108.03182497 14.32592773 118.20507812 C14.33600146 124.54490322 14.36524485 130.88438845 14.40724754 137.22407913 C14.41950179 139.61219343 14.42468908 142.00035553 14.42244911 144.38850021 C14.4200974 147.69996842 14.44223108 151.01044362 14.4699707 154.32177734 C14.46336929 155.28994888 14.45676788 156.25812042 14.44996643 157.25563049 C14.52492267 162.70784919 15.28171254 166.56898176 18.04139996 171.30649757 C19.46951299 173.82946103 20.08852482 176.44240534 20.75 179.25 C21.11351563 180.74273437 21.11351563 180.74273437 21.484375 182.265625 C22 185 22 185 22 189 C20.02 189 18.04 189 16 189 C16 190.65 16 192.3 16 194 C37.45 194 58.9 194 81 194 C81.495 204.395 81.495 204.395 82 215 C40.42 215 -1.16 215 -44 215 C-44 207.41 -44 199.82 -44 192 C-29.48 191.67 -14.96 191.34 0 191 C0.99 188.36 1.98 185.72 3 183 C4.82421875 181.0390625 4.82421875 181.0390625 6.6875 179.625 C8.75698495 177.68239679 9.85678835 176.56483476 10.55859375 173.796875 C10.72026046 167.90079515 9.2824474 162.31448324 7.859375 156.62890625 C6.39614646 150.45009118 5.40227336 144.1889136 4.33642578 137.93164062 C3.88209781 135.32304635 3.37640922 132.72489966 2.875 130.125 C-0.25796161 112.81538712 -1.3943345 93.34751325 8.2578125 78 C8.50273438 77.34 8.74765625 76.68 9 76 C7.84273795 74.16199557 6.67323997 72.33062881 5.4453125 70.5390625 C-0.27527943 60.48937398 -1.16185417 48.26526156 -1.1328125 36.93359375 C-1.13376923 36.09586929 -1.13472595 35.25814484 -1.13571167 34.39503479 C-1.13638784 32.63615849 -1.13457312 30.87727961 -1.13037109 29.1184082 C-1.12500804 26.44151157 -1.13033877 23.76478217 -1.13671875 21.08789062 C-1.136058 19.3697913 -1.1347769 17.65169208 -1.1328125 15.93359375 C-1.13483673 15.14174179 -1.13686096 14.34988983 -1.13894653 13.53404236 C-1.11967351 8.92110946 -0.76074778 4.55126617 0 0 Z " fill="#FDC11F" transform="translate(105,194)"/>
<path d="M0 0 C7.83555426 7.83555426 5.3170017 27.31752384 5.32128906 37.46801758 C5.2570038 48.79019585 4.64886779 70.35113221 -4 79 C-3.93487013 80.54535407 -3.79682667 82.08784786 -3.625 83.625 C-3.53476563 84.46289062 -3.44453125 85.30078125 -3.3515625 86.1640625 C-3.09264591 88.25265632 -2.79831391 90.33693432 -2.484375 92.41796875 C0.52131791 114.64555259 -6.1013631 137.3058742 -11.640625 158.66796875 C-15.39922129 171.69362685 -15.39922129 171.69362685 -16 185 C-14.09965797 187.43812046 -14.09965797 187.43812046 -11.5625 189.5 C-7.1922793 193.27521413 -7.03812174 193.77126959 -6 200 C8.52 200.33 23.04 200.66 38 201 C38 201.66 38 202.32 38 203 C16.55 203 -4.9 203 -27 203 C-27 201.35 -27 199.7 -27 198 C-25.02 198 -23.04 198 -21 198 C-21.22816406 197.28714844 -21.45632812 196.57429687 -21.69140625 195.83984375 C-23.38759904 190.1884032 -24.57456216 185.84837374 -23 180 C-22.49292511 179.07318924 -21.98585022 178.14637848 -21.46340942 177.19148254 C-18.9459702 171.3572567 -19.63778687 164.9163705 -19.71044922 158.6862793 C-19.71617311 157.23351522 -19.72044243 155.7807448 -19.72337341 154.32797241 C-19.73195329 151.20900226 -19.74917416 148.0902423 -19.77270126 144.97134972 C-19.80828181 140.0322774 -19.81450449 135.09343599 -19.81497192 130.1542511 C-19.81992251 116.11246447 -19.84903582 102.0710445 -19.94140625 88.02954102 C-19.9922257 80.26690983 -20.01076042 72.50488975 -19.9938184 64.74210292 C-19.98631374 60.63997435 -19.99552624 56.53940461 -20.04507065 52.43753624 C-20.09170436 48.57663175 -20.09621969 44.71791004 -20.06949043 40.85683823 C-20.06715279 39.4467577 -20.08000405 38.03654994 -20.10984993 36.62678337 C-20.26180224 29.02453116 -19.85853375 24.1602123 -14.60525513 18.41706848 C-13.81146517 17.68396359 -13.01767521 16.95085871 -12.19983101 16.19553852 C-9.8284935 13.82882816 -8.61986551 11.66330078 -7.25 8.625 C-5.46546853 4.67042853 -3.76468017 2.36637039 0 0 Z " fill="#FBC120" transform="translate(148,185)"/>
<path d="M0 0 C0.72832031 0.45761719 1.45664063 0.91523438 2.20703125 1.38671875 C9.33102554 5.53661834 14.5509489 6.07421875 23.01953125 6.07421875 C23.01953125 71.08421875 23.01953125 136.09421875 23.01953125 203.07421875 C17.42579498 197.48048248 17.71729091 192.26270401 17.70068359 184.73657227 C17.69063797 183.69472778 17.68059235 182.6528833 17.67024231 181.57946777 C17.6392809 178.12069218 17.62230139 174.66199597 17.60546875 171.203125 C17.58671785 168.7678108 17.56714166 166.33250283 17.54678345 163.89720154 C17.49532145 157.45262519 17.4558574 151.00802666 17.41864014 144.56335449 C17.37929273 138.15480672 17.32753623 131.74636084 17.27734375 125.33789062 C17.07175666 98.24992739 16.95653536 71.16293553 17.01953125 44.07421875 C15.53453125 43.57921875 15.53453125 43.57921875 14.01953125 43.07421875 C12.23046875 41.40234375 12.23046875 41.40234375 10.39453125 39.32421875 C9.78351563 38.64875 9.1725 37.97328125 8.54296875 37.27734375 C6.8586874 34.8416138 6.39630922 32.98661063 6.01953125 30.07421875 C5.35953125 30.07421875 4.69953125 30.07421875 4.01953125 30.07421875 C3.96837285 36.40556342 3.93360742 42.73685381 3.90966797 49.06835938 C3.89967661 51.21746818 3.88607894 53.36656362 3.86865234 55.515625 C3.59332282 71.91203325 3.59332282 71.91203325 6.01953125 88.07421875 C6.24278076 88.99025879 6.46603027 89.90629883 6.69604492 90.85009766 C8.03171422 96.04613324 9.97997761 100.01094085 13.2265625 104.28515625 C14.01953125 106.07421875 14.01953125 106.07421875 13.28125 108.08984375 C12.65669922 109.07210937 12.65669922 109.07210937 12.01953125 110.07421875 C1.27976763 128.19756986 6.11458497 152.2270856 10.43359375 171.76953125 C10.99772633 174.95123902 11.12728208 177.8514893 11.01953125 181.07421875 C9.40823994 178.13030924 8.52709164 175.42356704 7.8359375 172.14453125 C7.63186279 171.19215576 7.42778809 170.23978027 7.2175293 169.25854492 C6.90295776 167.74417847 6.90295776 167.74417847 6.58203125 166.19921875 C6.1425984 164.09360979 5.70249774 161.98814008 5.26171875 159.8828125 C5.04999023 158.8707373 4.83826172 157.85866211 4.62011719 156.81591797 C4.14578255 154.65056108 3.59934578 152.50100464 3.02734375 150.359375 C-0.7288573 136.17524439 0.25658971 120.49498202 1.76953125 106.01171875 C2.22303177 100.8846434 1.54276931 97.77513774 -0.86328125 93.26171875 C-11.61617422 72.20710314 -7.80433262 43.36010042 -3.98046875 21.07421875 C-3.57486464 18.5756272 -3.18314874 16.07530059 -2.79296875 13.57421875 C-2.63441406 12.61515625 -2.47585937 11.65609375 -2.3125 10.66796875 C-1.98154338 8.08261348 -1.81476342 5.67624028 -1.98046875 3.07421875 C-3.3763266 1.25945872 -3.3763266 1.25945872 -4.98046875 0.07421875 C-1.98046875 -0.92578125 -1.98046875 -0.92578125 0 0 Z " fill="#9C5502" transform="translate(100.98046875,163.92578125)"/>
<path d="M0 0 C4.27738156 1.79818366 7.15986463 3.70615308 9.70703125 7.62890625 C11.32145294 11.83810843 11.454654 15.34721805 11.375 19.8125 C11.36702393 20.61059082 11.35904785 21.40868164 11.35083008 22.23095703 C11.19694748 28.58754192 10.76790394 34.8114832 6.40625 39.8359375 C4.51054407 42.75321829 4.700206 44.8063173 4.8125 48.25 C4.83957031 49.32765625 4.86664063 50.4053125 4.89453125 51.515625 C4.94673828 52.74539062 4.94673828 52.74539062 5 54 C4.67 53.34 4.34 52.68 4 52 C0.95849927 53.66585353 0.95849927 53.66585353 -2 56 C-2.38218767 57.65614657 -2.71395102 59.32457024 -3 61 C-5.4375 63.6875 -5.4375 63.6875 -8 66 C-8.66 66.66 -9.32 67.32 -10 68 C-2.41 68.33 5.18 68.66 13 69 C13 69.66 13 70.32 13 71 C5.60440546 73.77334795 -2.13834128 74.55455684 -10 74 C-10.99 73.505 -10.99 73.505 -12 73 C-14.93329562 73.03798092 -17.82408782 73.14351931 -20.75 73.3125 C-21.54921875 73.34794922 -22.3484375 73.38339844 -23.171875 73.41992188 C-27.80506483 73.67520454 -31.60205403 74.42566282 -36 76 C-38.71061275 76.22663986 -41.27148292 76.0940868 -44 76 C-44 75.34 -44 74.68 -44 74 C-44.78375 73.87625 -45.5675 73.7525 -46.375 73.625 C-49 73 -49 73 -51 71 C-50.63318342 68.06546739 -50.13562754 67.13562754 -48 65 C-45.86791992 64.30151367 -45.86791992 64.30151367 -43.23046875 63.66796875 C-41.78136108 63.30952881 -41.78136108 63.30952881 -40.30297852 62.94384766 C-39.27487061 62.69425293 -38.2467627 62.4446582 -37.1875 62.1875 C-28.49915033 60.01153416 -20.23124534 57.5705594 -12 54 C-11.91873913 51.91731407 -11.86069161 49.83371342 -11.8125 47.75 C-11.77769531 46.58984375 -11.74289063 45.4296875 -11.70703125 44.234375 C-12.02950132 40.67430541 -12.6913106 39.61614199 -15 37 C-17.61628099 32.51494687 -17.70023607 28.09598675 -18 23 C-18.06574219 21.98550781 -18.13148437 20.97101562 -18.19921875 19.92578125 C-18.43935863 13.32607491 -18.15057101 9.24282654 -14 4 C-9.6982833 0.18711474 -5.66268937 -1.2172136 0 0 Z " fill="#F4AF18" transform="translate(127,17)"/>
<path d="M0 0 C0.86625 0.7115625 0.86625 0.7115625 1.75 1.4375 C3.92582084 2.9484867 5.42602448 3.54036151 8 4 C8 4.66 8 5.32 8 6 C9.08667969 5.80083984 9.08667969 5.80083984 10.1953125 5.59765625 C12.18854726 5.2335587 14.18343555 4.87842425 16.1796875 4.53125 C19.09442986 4.0282147 19.09442986 4.0282147 22.25 3.0625 C25.82511667 2.98124735 27.44000328 4.15436854 30.2890625 6.1875 C35.449911 11.65470024 36.63533777 16.41855755 36.4375 23.6875 C36.44458984 24.43322266 36.45167969 25.17894531 36.45898438 25.94726562 C36.40941591 30.22159274 36.06881822 32.91490158 33 36 C35.12577907 35.9131724 37.25069581 35.8050049 39.375 35.6875 C40.55835938 35.62949219 41.74171875 35.57148437 42.9609375 35.51171875 C44.46527344 35.25841797 44.46527344 35.25841797 46 35 C48.08745045 31.86882433 48.27653996 30.93053776 48.4140625 27.33203125 C48.45273438 26.43935547 48.49140625 25.54667969 48.53125 24.62695312 C48.57765625 23.23379883 48.57765625 23.23379883 48.625 21.8125 C48.66367188 20.87212891 48.70234375 19.93175781 48.7421875 18.96289062 C48.83643187 16.6421229 48.92204025 14.32136252 49 12 C52.50092947 15.19399867 53.42645135 18.37864821 54 23 C54.22456393 28.33171246 54.11650342 33.66673241 54 39 C50.37 39 46.74 39 43 39 C43 39.66 43 40.32 43 41 C40.91015625 42.48046875 40.91015625 42.48046875 38.0625 44.1875 C33.34114996 47.09482551 28.9864769 50.22803027 24.6796875 53.71484375 C23 55 23 55 22 55 C22 50.71 22 46.42 22 42 C21.34 42 20.68 42 20 42 C20 39.69 20 37.38 20 35 C20.99 34.505 20.99 34.505 22 34 C19.69 32.68 17.38 31.36 15 30 C14.80461882 39.86674975 14.61777205 49.34346884 17 59 C16.44570312 59.40992188 15.89140625 59.81984375 15.3203125 60.2421875 C14.59585938 60.78101563 13.87140625 61.31984375 13.125 61.875 C12.40570313 62.40867188 11.68640625 62.94234375 10.9453125 63.4921875 C8.91747368 64.99873162 8.91747368 64.99873162 7 67 C2.53481179 43.79591559 2.53481179 43.79591559 2.41625977 31.93798828 C2.33505107 28.29193737 1.86877718 25.35851904 0.48828125 22.01953125 C-1.23721668 17.81108762 -1.38522632 14.12972691 -1.25 9.625 C-1.24484375 8.91472656 -1.2396875 8.20445313 -1.234375 7.47265625 C-1.15603596 2.31207192 -1.15603596 2.31207192 0 0 Z " fill="#DF8D0A" transform="translate(75,87)"/>
<path d="M0 0 C1.98 0 3.96 0 6 0 C6 4.62 6 9.24 6 14 C18.54 14 31.08 14 44 14 C44 9.38 44 4.76 44 0 C64.79 0 85.58 0 107 0 C107 4.29 107 8.58 107 13 C110.96 13 114.92 13 119 13 C119 9.04 119 5.08 119 1 C120.32 1 121.64 1 123 1 C123.06058594 1.80824219 123.12117188 2.61648438 123.18359375 3.44921875 C123.26738281 4.51785156 123.35117188 5.58648437 123.4375 6.6875 C123.51871094 7.74324219 123.59992188 8.79898437 123.68359375 9.88671875 C123.98364225 13.33405652 123.98364225 13.33405652 125 18 C83.42 18 41.84 18 -1 18 C-0.505 9.09 -0.505 9.09 0 0 Z " fill="#E6960F" transform="translate(62,391)"/>
<path d="M0 0 C11.88 0 23.76 0 36 0 C36 12.54 36 25.08 36 38 C24.12 38 12.24 38 0 38 C0 25.46 0 12.92 0 0 Z " fill="#515058" transform="translate(132,432)"/>
<path d="M0 0 C0.27603012 2.91631827 0.52158705 5.82989715 0.75 8.75 C0.83121094 9.575 0.91242188 10.4 0.99609375 11.25 C1.44157437 17.38773301 1.44157437 17.38773301 -0.859375 20.578125 C-3 22 -3 22 -5 22 C-5.144375 22.928125 -5.28875 23.85625 -5.4375 24.8125 C-7.30615659 31.56734754 -13.14963785 37.14963785 -18 42 C-18.30404428 44.66671122 -18.30404428 44.66671122 -18.2515564 47.83656311 C-18.25693924 49.08001495 -18.26232208 50.3234668 -18.26786804 51.604599 C-18.26385334 52.99038741 -18.25968241 54.37617537 -18.25537109 55.76196289 C-18.25812 57.21561886 -18.26179928 58.66927333 -18.26634216 60.1229248 C-18.27446762 63.25882557 -18.27661917 66.39465498 -18.27439499 69.53056526 C-18.27156528 74.49418601 -18.28590304 79.45766399 -18.30337524 84.42124939 C-18.35042866 98.53789095 -18.37432877 112.65452378 -18.38085938 126.77124023 C-18.38461655 134.56378129 -18.40270308 142.35616169 -18.43595374 150.1486339 C-18.45612345 155.07702236 -18.45855913 160.00499515 -18.44767356 164.9334079 C-18.44505575 168.01063983 -18.45912331 171.08763284 -18.47775459 174.16480255 C-18.48305195 175.58490309 -18.48162206 177.00504833 -18.47271919 178.42513084 C-18.42623638 186.49498158 -18.84199248 192.94925848 -23 200 C-23.33 200 -23.66 200 -24 200 C-24.07069306 181.8905318 -24.12327874 163.78110036 -24.15543652 145.67152309 C-24.17077774 137.25923941 -24.19161672 128.84704241 -24.22631836 120.43481445 C-24.25661819 113.08602757 -24.27566698 105.73730356 -24.28226548 98.38845593 C-24.28611064 94.51244077 -24.29486494 90.63660514 -24.31719017 86.76064873 C-24.46775607 59.52690657 -22.51043366 32.9026575 -18 6 C-18.66 5.67 -19.32 5.34 -20 5 C-17.75920676 2.75920676 -13.01386411 3.03733231 -9.98046875 2.59765625 C-6.2821464 1.85605295 -3.77780545 0 0 0 Z " fill="#E8980F" transform="translate(148,167)"/>
<path d="M0 0 C0 5.28 0 10.56 0 16 C-0.33 16 -0.66 16 -1 16 C-1 12.04 -1 8.08 -1 4 C-2.32 4 -3.64 4 -5 4 C-5 7.96 -5 11.92 -5 16 C-8.96 16 -12.92 16 -17 16 C-17 11.71 -17 7.42 -17 3 C-37.79 3 -58.58 3 -80 3 C-80 7.62 -80 12.24 -80 17 C-92.54 17 -105.08 17 -118 17 C-118 12.38 -118 7.76 -118 3 C-119.98 3 -121.96 3 -124 3 C-124 2.34 -124 1.68 -124 1 C-110.34254372 0.86866155 -96.68507929 0.73820726 -83.0276041 0.60884857 C-76.68433282 0.54874031 -70.34106461 0.4883397 -63.99780273 0.42724609 C-57.86400438 0.36818106 -51.73019888 0.30991644 -45.59638786 0.25218201 C-43.26871411 0.2301369 -40.94104296 0.20781453 -38.61337471 0.18519592 C-25.7415552 0.06031166 -12.87246076 -0.02538321 0 0 Z " fill="#AB5B01" transform="translate(186,388)"/>
<path d="M0 0 C1.65 0 3.3 0 5 0 C7.48288836 2.48288836 7.28583167 4.01186156 7.32226562 7.41015625 C7.31904297 8.09980469 7.31582031 8.78945312 7.3125 9.5 C7.32861328 10.18964844 7.34472656 10.87929687 7.36132812 11.58984375 C7.36328125 13.59375 7.36328125 13.59375 7 17 C6.01 17.66 5.02 18.32 4 19 C7.94030595 22.72916012 10.44596191 23.51446629 15.83203125 23.609375 C17.12431641 23.64160156 18.41660156 23.67382812 19.74804688 23.70703125 C21.10286009 23.7217735 22.45767798 23.73609112 23.8125 23.75 C25.18688639 23.77817759 26.56123805 23.80810754 27.93554688 23.83984375 C31.2904241 23.91047274 34.64460896 23.96320774 38 24 C37.93983797 25.7717719 37.85100672 27.54258679 37.75 29.3125 C37.70359375 30.29863281 37.6571875 31.28476563 37.609375 32.30078125 C37 35 37 35 35.09448242 36.83227539 C32.66512427 38.18670132 31.0783413 38.36178454 28.3125 38.4375 C24.62059865 38.69620258 21.93961033 39.29528869 18.625 40.9375 C13.31854787 43.55738211 7.82333898 44.25114423 2 45 C2.33 45.33 2.66 45.66 3 46 C2.85231964 54.3950606 1.81437177 62.66120057 0.54296875 70.94921875 C-0.69014867 79.58104072 -1.26616939 88.31437144 -2 97 C-2.33 97 -2.66 97 -3 97 C-3.02526648 89.47030348 -3.04283141 81.9406178 -3.05493164 74.41088867 C-3.0599737 71.84708243 -3.06680714 69.28327909 -3.07543945 66.71948242 C-3.08751064 63.04344979 -3.09322942 59.36745502 -3.09765625 55.69140625 C-3.10281754 54.53725723 -3.10797882 53.38310822 -3.11329651 52.19398499 C-3.11337204 51.13296066 -3.11344757 50.07193634 -3.11352539 48.97875977 C-3.115746 48.03944107 -3.11796661 47.10012238 -3.12025452 46.13233948 C-3 44 -3 44 -2 43 C-0.27942879 42.62481582 1.45219738 42.29975538 3.1875 42 C4.1775 41.82726562 5.1675 41.65453125 6.1875 41.4765625 C7.115625 41.31929687 8.04375 41.16203125 9 41 C10.216875 40.79375 11.43375 40.5875 12.6875 40.375 C13.450625 40.25125 14.21375 40.1275 15 40 C15 39.34 15 38.68 15 38 C9.06 37.67 3.12 37.34 -3 37 C-3 31.06 -3 25.12 -3 19 C-2.01 18.67 -1.02 18.34 0 18 C0 12.06 0 6.12 0 0 Z " fill="#FCC323" transform="translate(127,127)"/>
<path d="M0 0 C0.66 0 1.32 0 2 0 C2.37125 0.845625 2.7425 1.69125 3.125 2.5625 C5.48066945 6.88122732 8.477358 11.738679 13 14 C13 33.14 13 52.28 13 72 C11 68 11 68 11 65 C8.48916886 66.25541557 8.12874554 67.50063488 7 70 C3.15648562 67.43765708 3.06982213 65.76855854 1.875 61.375 C1.54242188 60.18648437 1.20984375 58.99796875 0.8671875 57.7734375 C-0.73658634 50.79485405 -1.15107782 44.06047514 -1.1328125 36.93359375 C-1.13376923 36.09586929 -1.13472595 35.25814484 -1.13571167 34.39503479 C-1.13638784 32.63615849 -1.13457312 30.87727961 -1.13037109 29.1184082 C-1.12500804 26.44151157 -1.13033877 23.76478217 -1.13671875 21.08789062 C-1.136058 19.3697913 -1.1347769 17.65169208 -1.1328125 15.93359375 C-1.13483673 15.14174179 -1.13686096 14.34988983 -1.13894653 13.53404236 C-1.11967351 8.92110946 -0.76074778 4.55126617 0 0 Z " fill="#FDC424" transform="translate(105,194)"/>
<path d="M0 0 C0.33 0.66 0.66 1.32 1 2 C42.58 2 84.16 2 127 2 C127 2.33 127 2.66 127 3 C123.04 3 119.08 3 115 3 C115 8.61 115 14.22 115 20 C103.12 20 91.24 20 79 20 C79 14.39 79 8.78 79 3 C52.93 3 26.86 3 0 3 C0 2.01 0 1.02 0 0 Z " fill="#5E5854" transform="translate(60,407)"/>
<path d="M0 0 C0.66 0 1.32 0 2 0 C3.82754904 3.65509808 3.18474067 7.97689251 3.1875 12 C3.19974609 12.90878906 3.21199219 13.81757813 3.22460938 14.75390625 C3.23794852 21.005517 2.68240034 26.9573464 1 33 C-1.23235009 35.23235009 -6.37693666 34.18531482 -9.375 34.1875 C-10.2515625 34.19974609 -11.128125 34.21199219 -12.03125 34.22460938 C-12.87429687 34.22654297 -13.71734375 34.22847656 -14.5859375 34.23046875 C-15.3598584 34.23457764 -16.1337793 34.23868652 -16.93115234 34.24291992 C-19 34 -19 34 -22 32 C-22 31.34 -22 30.68 -22 30 C-23.65 30 -25.3 30 -27 30 C-24 28 -24 28 -22 27 C-21.97314905 24.52076199 -21.95323453 22.0418116 -21.9375 19.5625 C-21.92912109 18.85544922 -21.92074219 18.14839844 -21.91210938 17.41992188 C-21.90346412 15.61306441 -21.94779989 13.80612397 -22 12 C-23.94090826 10.05909174 -27.47293902 10.60080565 -30.0625 10.4375 C-31.35285156 10.35371094 -32.64320312 10.26992187 -33.97265625 10.18359375 C-34.97167969 10.12300781 -35.97070312 10.06242187 -37 10 C-37 9.67 -37 9.34 -37 9 C-33.37 9 -29.74 9 -26 9 C-26 8.01 -26 7.02 -26 6 C-25.37955811 5.97494385 -24.75911621 5.9498877 -24.11987305 5.92407227 C-21.30887603 5.80803279 -18.49820759 5.68534241 -15.6875 5.5625 C-14.22280273 5.50352539 -14.22280273 5.50352539 -12.72851562 5.44335938 C-11.79072266 5.40146484 -10.85292969 5.35957031 -9.88671875 5.31640625 C-9.02264404 5.27974854 -8.15856934 5.24309082 -7.26831055 5.20532227 C-4.8352174 5.07252646 -4.8352174 5.07252646 -2 4 C-0.79117904 1.99983534 -0.79117904 1.99983534 0 0 Z " fill="#D17E06" transform="translate(155,117)"/>
<path d="M0 0 C0.33 0 0.66 0 1 0 C1.00146656 0.57499741 1.00293312 1.14999481 1.00444412 1.74241638 C1.04155468 15.75695922 1.10062542 29.77126713 1.18390274 43.78561401 C1.22365053 50.56297178 1.25606451 57.34021415 1.27099609 64.11767578 C1.28543067 70.66007469 1.32059071 77.20217335 1.36830902 83.74441528 C1.38312957 86.23858529 1.3910414 88.73280637 1.39188385 91.22702026 C1.39425308 94.72465005 1.42133179 98.22129096 1.45410156 101.71875 C1.4490712 102.74662125 1.44404083 103.77449249 1.43885803 104.83351135 C1.51989808 110.43583371 2.18413353 114.46363405 5.04195786 119.32769775 C6.48043936 121.83862681 7.08995565 124.44847842 7.75 127.25 C8.11351563 128.74273437 8.11351563 128.74273437 8.484375 130.265625 C9 133 9 133 9 137 C7.02 137 5.04 137 3 137 C3 138.65 3 140.3 3 142 C18.84 142 34.68 142 51 142 C51 142.33 51 142.66 51 143 C15.69 143 -19.62 143 -56 143 C-56.33 142.01 -56.66 141.02 -57 140 C-42.48 139.67 -27.96 139.34 -13 139 C-12.01 136.36 -11.02 133.72 -10 131 C-8.17578125 129.0390625 -8.17578125 129.0390625 -6.3125 127.625 C-4.28381336 125.71211577 -3.15181816 124.57966932 -2.44140625 121.8671875 C-2.22644003 114.20427388 -4.33335604 106.44037481 -6 99 C-3.2160817 100.39195915 -3.02101003 102.15575779 -2 105 C-0.46690279 103.46690279 -0.85979117 102.06949467 -0.84178162 99.9315033 C-0.82709839 98.61683327 -0.82709839 98.61683327 -0.81211853 97.27560425 C-0.80636307 96.30672272 -0.8006076 95.33784119 -0.79467773 94.33959961 C-0.78477814 93.32508224 -0.77487854 92.31056488 -0.76467896 91.26530457 C-0.73295872 87.89434179 -0.7082651 84.5233649 -0.68359375 81.15234375 C-0.6630333 78.82206342 -0.64203708 76.4917869 -0.62062073 74.16151428 C-0.56530614 68.01466953 -0.5159384 61.86779061 -0.46777344 55.72088623 C-0.41762677 49.45386701 -0.36190512 43.18689769 -0.30664062 36.91992188 C-0.19894431 24.61332383 -0.097525 12.30668255 0 0 Z " fill="#D79916" transform="translate(118,246)"/>
<path d="M0 0 C5.87770389 -0.81071778 9.25096703 0.22473815 14.23828125 3.3203125 C17.84301429 6.75719766 19.13713482 10.51459728 19.46875 15.3828125 C19.49504858 16.96335721 19.50515744 18.54424493 19.5 20.125 C19.52835938 20.92292969 19.55671875 21.72085938 19.5859375 22.54296875 C19.59350434 24.80923669 19.52354683 26.79410764 19 29 C16.59375 31.3671875 16.59375 31.3671875 14 33 C11.51386526 36.72920211 11.64063779 39.3459892 11.44140625 43.72265625 C11.29574219 44.47417969 11.15007812 45.22570313 11 46 C8 48 8 48 3 48 C2.67 39.09 2.34 30.18 2 21 C1.01 20.67 0.02 20.34 -1 20 C-2.50930882 16.98138236 -2.18438844 13.87008697 -2.1875 10.5625 C-2.19974609 9.88123047 -2.21199219 9.19996094 -2.22460938 8.49804688 C-2.23555848 4.77170191 -2.12005619 3.18008429 0 0 Z " fill="#FAC022" transform="translate(119,17)"/>
<path d="M0 0 C12.21 0 24.42 0 37 0 C37.495 8.415 37.495 8.415 38 17 C22.16 17 6.32 17 -10 17 C-10 15.68 -10 14.36 -10 13 C-5.545 12.505 -5.545 12.505 -1 12 C-0.67 8.04 -0.34 4.08 0 0 Z " fill="#FDC72C" transform="translate(131,392)"/>
<path d="M0 0 C3.00550918 3.00550918 2.32496124 6.38593229 2.3359375 10.41796875 C2.3425943 11.26740555 2.3492511 12.11684235 2.35610962 12.99201965 C2.36625707 14.80024043 2.370926 16.60849882 2.37060547 18.41674805 C2.374912 21.13201831 2.4110181 23.84557191 2.44921875 26.56054688 C2.53453728 39.73552756 1.67139519 52.76688562 -6 64 C-6.99 64 -7.98 64 -9 64 C-9.7837651 53.01329282 -10.19536946 42.00637874 -10.34204102 30.99319458 C-10.37439066 28.97550504 -10.43207101 26.95827257 -10.49023438 24.94116211 C-10.55987092 16.86383443 -9.73577233 10.7048162 -5 4 C-2.1875 1.375 -2.1875 1.375 0 0 Z " fill="#FDF0A9" transform="translate(148,185)"/>
<path d="M0 0 C0.33 0 0.66 0 1 0 C1.01981934 0.87624023 1.03963867 1.75248047 1.06005859 2.65527344 C1.13904139 5.96556918 1.2257524 9.27548827 1.31738281 12.58544922 C1.35522034 14.00692184 1.39014384 15.42847561 1.421875 16.85009766 C1.74865949 31.32052318 2.12889167 47.25932517 11.20703125 59.2109375 C12 61 12 61 11.26171875 63.015625 C10.63716797 63.99789062 10.63716797 63.99789062 10 65 C-0.73976362 83.12335111 4.09505372 107.15286685 8.4140625 126.6953125 C8.97819508 129.87702027 9.10775083 132.77727055 9 136 C7.38870869 133.05609049 6.50756039 130.34934829 5.81640625 127.0703125 C5.61233154 126.11793701 5.40825684 125.16556152 5.19799805 124.18432617 C4.98828369 123.17474854 4.77856934 122.1651709 4.5625 121.125 C4.12306715 119.01939104 3.68296649 116.91392133 3.2421875 114.80859375 C3.03045898 113.79651855 2.81873047 112.78444336 2.60058594 111.74169922 C2.1262513 109.57634233 1.57981453 107.42678589 1.0078125 105.28515625 C-2.74838855 91.10102564 -1.76294154 75.42076327 -0.25 60.9375 C0.20277818 55.81859108 -0.47161267 52.70947624 -2.875 48.203125 C-6.62503067 40.85931494 -7.47578487 33.12358613 -7 25 C-6.34 25 -5.68 25 -5 25 C-4.71125 25.639375 -4.4225 26.27875 -4.125 26.9375 C-3.17176549 29.15206079 -3.17176549 29.15206079 -1 30 C-0.67 20.1 -0.34 10.2 0 0 Z " fill="#D68509" transform="translate(103,209)"/>
<path d="M0 0 C5.875 1.875 5.875 1.875 7 3 C8.68183948 3.23287008 10.3712416 3.41264166 12.0625 3.5625 C13.44115234 3.68818359 13.44115234 3.68818359 14.84765625 3.81640625 C15.91306641 3.90728516 15.91306641 3.90728516 17 4 C17 4.33 17 4.66 17 5 C13.04 5 9.08 5 5 5 C5 7.31 5 9.62 5 12 C5.66 12 6.32 12 7 12 C7.33 15.96 7.66 19.92 8 24 C8.83144531 23.36191406 9.66289063 22.72382813 10.51953125 22.06640625 C11.61702664 21.23155933 12.71469179 20.39693553 13.8125 19.5625 C14.35970703 19.14162109 14.90691406 18.72074219 15.47070312 18.28710938 C17.97679457 16.38855525 19.99420019 15.00193327 23 14 C24.21721037 25.39444155 24.21721037 25.39444155 21.359375 29.1640625 C18.05360965 31.6495083 15.05693683 33.15937345 11 34 C11 34.66 11 35.32 11 36 C9.72311631 36.96566147 8.40246005 37.87396285 7.0625 38.75 C3.52914938 41.27043345 3.52914938 41.27043345 2 45.375 C2 46.24125 2 47.1075 2 48 C-0.25 48.3125 -0.25 48.3125 -3 48 C-6.03309277 45.37678463 -7.31988114 42.99393727 -7.75 39.0625 C-7.64049174 36.17695736 -7.24268943 35.24954804 -5.203125 33.15234375 C-3.19042655 31.64281991 -1.16667549 30.27679091 1 29 C0.855625 28.36835938 0.71125 27.73671875 0.5625 27.0859375 C-1.22451715 18.4735076 -2.63248144 8.57135957 0 0 Z " fill="#EAA012" transform="translate(90,117)"/>
<path d="M0 0 C11.88 0 23.76 0 36 0 C36 5.28 36 10.56 36 16 C24.12 16 12.24 16 0 16 C0 10.72 0 5.44 0 0 Z " fill="#504F58" transform="translate(139,476)"/>
<path d="M0 0 C3.96 0 7.92 0 12 0 C12.02464849 5.39346988 12.04283531 10.78690725 12.05493164 16.18041992 C12.05997231 18.01668875 12.06680477 19.85295354 12.07543945 21.68920898 C12.08751672 24.32276401 12.09323081 26.95626616 12.09765625 29.58984375 C12.10281754 30.41588608 12.10797882 31.24192841 12.11329651 32.09300232 C12.11349205 34.06236368 12.06204152 36.03161614 12 38 C11 39 11 39 8.75 39.1328125 C7.8425 39.13023437 6.935 39.12765625 6 39.125 C4.63875 39.12886719 4.63875 39.12886719 3.25 39.1328125 C1 39 1 39 0 38 C-0.08861992 35.1883662 -0.11522355 32.40141745 -0.09765625 29.58984375 C-0.0962413 28.74780899 -0.09482635 27.90577423 -0.09336853 27.03822327 C-0.08775263 24.33794665 -0.07519748 21.63775172 -0.0625 18.9375 C-0.05748705 17.11132932 -0.05292379 15.28515734 -0.04882812 13.45898438 C-0.03777804 8.97262458 -0.02050279 4.48632616 0 0 Z " fill="#3F3D47" transform="translate(109,432)"/>
<path d="M0 0 C1.89094537 3.78189074 0.82019494 9.12978994 0.64453125 13.30078125 C0.64898613 17.04019548 0.64898613 17.04019548 2.99780273 19.35888672 C5.40223209 22.53058733 5.47115845 24.03102556 5.390625 27.95703125 C5.37773438 29.06884766 5.36484375 30.18066406 5.3515625 31.32617188 C5.31804687 32.47666016 5.28453125 33.62714844 5.25 34.8125 C5.23195313 35.98232422 5.21390625 37.15214844 5.1953125 38.35742188 C5.1482644 41.2391178 5.08253709 44.11913797 5 47 C7.31 47 9.62 47 12 47 C6 53 6 53 2.4375 53.0625 C1.303125 53.041875 0.16875 53.02125 -1 53 C-1.03738281 52.10796875 -1.07476562 51.2159375 -1.11328125 50.296875 C-1.17902344 49.12640625 -1.24476562 47.9559375 -1.3125 46.75 C-1.39951172 45.00976562 -1.39951172 45.00976562 -1.48828125 43.234375 C-2.03193873 39.79812775 -2.77325208 38.57313093 -5 36 C-7.61628099 31.51494687 -7.70023607 27.09598675 -8 22 C-8.06574219 20.98550781 -8.13148437 19.97101562 -8.19921875 18.92578125 C-8.43962106 12.31886259 -8.0609505 8.30179648 -4 3 C-1.75 1.0625 -1.75 1.0625 0 0 Z " fill="#B76602" transform="translate(117,18)"/>
<path d="M0 0 C12.21 0 24.42 0 37 0 C37 3.96 37 7.92 37 12 C24.79 12 12.58 12 0 12 C0 8.04 0 4.08 0 0 Z " fill="#924D00" transform="translate(69,392)"/>
<path d="M0 0 C3.50092947 3.19399867 4.42645135 6.37864821 5 11 C5.22456393 16.33171246 5.11650342 21.66673241 5 27 C1.37 27 -2.26 27 -6 27 C-6 27.66 -6 28.32 -6 29 C-8.08984375 30.48046875 -8.08984375 30.48046875 -10.9375 32.1875 C-15.65885004 35.09482551 -20.0135231 38.22803027 -24.3203125 41.71484375 C-26 43 -26 43 -27 43 C-27.33 36.73 -27.66 30.46 -28 24 C-18.9375 24.125 -18.9375 24.125 -16.12475586 24.18017578 C-11.02849822 24.21393665 -6.78438778 23.81717783 -2 22 C-0.82530556 19.65061112 -0.79965111 18.04926795 -0.68359375 15.4296875 C-0.64169922 14.53378906 -0.59980469 13.63789062 -0.55664062 12.71484375 C-0.51732422 11.77769531 -0.47800781 10.84054688 -0.4375 9.875 C-0.39431641 8.93011719 -0.35113281 7.98523438 -0.30664062 7.01171875 C-0.20040928 4.67462908 -0.09836824 2.3374317 0 0 Z " fill="#975001" transform="translate(124,99)"/>
<path d="M0 0 C20.79 0 41.58 0 63 0 C63 4.29 63 8.58 63 13 C66.96 13 70.92 13 75 13 C75 9.04 75 5.08 75 1 C76.32 1 77.64 1 79 1 C79.06058594 1.80824219 79.12117188 2.61648438 79.18359375 3.44921875 C79.26738281 4.51785156 79.35117188 5.58648437 79.4375 6.6875 C79.51871094 7.74324219 79.59992188 8.79898437 79.68359375 9.88671875 C79.98364225 13.33405652 79.98364225 13.33405652 81 18 C75.06 18 69.12 18 63 18 C62 14 62 14 62 1 C49.79 1 37.58 1 25 1 C25 4.96 25 8.92 25 13 C22.03 13 19.06 13 16 13 C16 9.04 16 5.08 16 1 C11.05 1 6.1 1 1 1 C1 5.29 1 9.58 1 14 C0.67 14 0.34 14 0 14 C0 9.38 0 4.76 0 0 Z " fill="#D48D0F" transform="translate(106,391)"/>
<path d="M0 0 C4.35535614 1.08883903 5.44713341 3.10304773 8 6.75 C9.84438013 10.43876027 9.48788734 14.72330313 9 18.75 C7.11484777 21.32637471 5.80665143 22.34667428 3 23.75 C-3.09254766 24.20129983 -3.09254766 24.20129983 -6.19140625 22.66015625 C-8.84267721 19.86000182 -8.56654225 17.73317004 -8.5625 13.9375 C-8.32960442 6.171637 -8.32960442 6.171637 -5.875 2.875 C-3 0.75 -3 0.75 0 0 Z " fill="#FDF0A7" transform="translate(148,95.25)"/>
<path d="M0 0 C4.95 0.33 9.9 0.66 15 1 C15.28216283 13.55624612 15.28216283 13.55624612 13 20 C12.65864073 21.33130115 12.32074044 22.66358148 12 24 C10.741875 24.04125 9.48375 24.0825 8.1875 24.125 C7.47980469 24.14820313 6.77210938 24.17140625 6.04296875 24.1953125 C4 24 4 24 1 22 C1 21.34 1 20.68 1 20 C-0.65 20 -2.3 20 -4 20 C-1 18 -1 18 1 17 C1.02691685 14.54159395 1.04679802 12.08348118 1.0625 9.625 C1.07087891 8.92632812 1.07925781 8.22765625 1.08789062 7.5078125 C1.1835442 3.62704624 1.1835442 3.62704624 0 0 Z " fill="#E89912" transform="translate(132,127)"/>
<path d="M0 0 C1.27617188 0.02320313 2.55234375 0.04640625 3.8671875 0.0703125 C5.78917969 0.09738281 5.78917969 0.09738281 7.75 0.125 C9.23113281 0.15980469 9.23113281 0.15980469 10.7421875 0.1953125 C10.7421875 1.8453125 10.7421875 3.4953125 10.7421875 5.1953125 C26.5821875 5.1953125 42.4221875 5.1953125 58.7421875 5.1953125 C58.7421875 5.5253125 58.7421875 5.8553125 58.7421875 6.1953125 C23.4321875 6.1953125 -11.8778125 6.1953125 -48.2578125 6.1953125 C-48.5878125 5.2053125 -48.9178125 4.2153125 -49.2578125 3.1953125 C-48.71101837 3.18722565 -48.16422424 3.17913879 -47.6008606 3.17080688 C-41.92328136 3.08492481 -36.2460579 2.98542925 -30.56884766 2.87792969 C-28.4484656 2.83958408 -26.32801724 2.80474117 -24.20751953 2.7734375 C-21.16414652 2.72790784 -18.12123218 2.66989411 -15.078125 2.609375 C-13.64993942 2.59204819 -13.64993942 2.59204819 -12.19290161 2.57437134 C-10.87175858 2.5445668 -10.87175858 2.5445668 -9.52392578 2.51416016 C-8.74671173 2.50083649 -7.96949768 2.48751282 -7.16873169 2.4737854 C-3.89313312 1.9964416 -3.71802589 0.22290323 0 0 Z " fill="#DD971D" transform="translate(110.2578125,382.8046875)"/>
<path d="M0 0 C4.95 0 9.9 0 15 0 C15 3.96 15 7.92 15 12 C17.64 12 20.28 12 23 12 C23 12.33 23 12.66 23 13 C20.03 13 17.06 13 14 13 C14 14.32 14 15.64 14 17 C9.05 17 4.1 17 -1 17 C-0.67 11.39 -0.34 5.78 0 0 Z " fill="#FCC01F" transform="translate(107,392)"/>
<path d="M0 0 C2.0625 0.4375 2.0625 0.4375 4 1 C4.44338285 4.10367992 4.56617216 6.90591879 4 10 C2.47470348 12.02941994 0.79455672 13.51541606 -1.12890625 15.16796875 C-3.22884341 17.22406588 -4.31663906 19.19159805 -5.625 21.8125 C-7.67664048 25.82035582 -7.67664048 25.82035582 -10.8125 27.5625 C-11.534375 27.706875 -12.25625 27.85125 -13 28 C-13.25224894 20.55865624 -12.69002099 13.27126313 -11 6 C-8.90464017 3.90464017 -7.68072225 3.38841733 -4.9375 2.4375 C-2.23198802 1.60255667 -2.23198802 1.60255667 0 0 Z " fill="#F6B719" transform="translate(144,171)"/>
<path d="M0 0 C1.20656997 0.84851055 2.38993393 1.73008656 3.5625 2.625 C4.22378906 3.11226563 4.88507813 3.59953125 5.56640625 4.1015625 C7 6 7 6 6.78125 8.796875 C6.5234375 9.85390625 6.265625 10.9109375 6 12 C2.92274703 30.55336464 4.38766077 47.47684129 8.4140625 65.6953125 C8.97819508 68.87702027 9.10775083 71.77727055 9 75 C7.38870869 72.05609049 6.50756039 69.34934829 5.81640625 66.0703125 C5.61233154 65.11793701 5.40825684 64.16556152 5.19799805 63.18432617 C4.88342651 61.66995972 4.88342651 61.66995972 4.5625 60.125 C4.12306715 58.01939104 3.68296649 55.91392133 3.2421875 53.80859375 C3.03045898 52.79651855 2.81873047 51.78444336 2.60058594 50.74169922 C2.1262513 48.57634233 1.57981453 46.42678589 1.0078125 44.28515625 C-2.70300541 30.27240102 -2.15134189 14.26131476 0 0 Z " fill="#AB6002" transform="translate(103,270)"/>
<path d="M0 0 C3.3 0 6.6 0 10 0 C10 5.94 10 11.88 10 18 C-0.125 18 -0.125 18 -4.5625 15.5 C-5.40941406 15.0359375 -6.25632812 14.571875 -7.12890625 14.09375 C-8.05509766 13.55234375 -8.05509766 13.55234375 -9 13 C-7.26859496 9.21655935 -4.9397507 6.9397507 -2 4 C-1.34 2.68 -0.68 1.36 0 0 Z " fill="#CC7501" transform="translate(113,146)"/>
<path d="M0 0 C0.53882812 0.34933594 1.07765625 0.69867188 1.6328125 1.05859375 C10.88309474 6.17669662 20.29001325 5.72795161 30.61962891 5.90429688 C33.47026504 6.01890707 36.20810891 6.42010972 39 7 C39 7.66 39 8.32 39 9 C27.87936146 12.76208836 16.56246262 14.77290296 5.25 10.625 C4.1775 10.08875 3.105 9.5525 2 9 C0.3603125 8.195625 0.3603125 8.195625 -1.3125 7.375 C-2.6428125 6.694375 -2.6428125 6.694375 -4 6 C-4.66 5.67 -5.32 5.34 -6 5 C-4.02 3.35 -2.04 1.7 0 0 Z " fill="#E8980F" transform="translate(103,158)"/>
<path d="M0 0 C0.69311279 0.32145996 1.38622559 0.64291992 2.1003418 0.97412109 C5.3391539 2.11999029 7.96506423 2.31654211 11.39453125 2.4140625 C12.59658203 2.45273438 13.79863281 2.49140625 15.03710938 2.53125 C16.90592773 2.57765625 16.90592773 2.57765625 18.8125 2.625 C20.07771484 2.66367188 21.34292969 2.70234375 22.64648438 2.7421875 C25.76417851 2.83630657 28.88186914 2.92194361 32 3 C32.495 4.485 32.495 4.485 33 6 C31.36215144 8.42644231 30.49095082 9.55866354 28 11 C20.6616399 12.02697159 11.99995697 11.62498386 5 9 C2.06777468 6.28232775 0.58756612 3.96607129 0 0 Z " fill="#FCECA0" transform="translate(131,148)"/>
<path d="M0 0 C1.98 0.99 1.98 0.99 4 2 C4 21.14 4 40.28 4 60 C-1.95934938 48.08130124 -0.24965084 32.02013323 -0.125 19 C-0.11493715 17.14583824 -0.10581721 15.29167111 -0.09765625 13.4375 C-0.07593439 8.95819727 -0.0415922 4.47916047 0 0 Z " fill="#FAEAA3" transform="translate(114,206)"/>
<path d="M0 0 C2 1 2 1 3 3 C-0.96 3.66 -4.92 4.32 -9 5 C-8.67 5.33 -8.34 5.66 -8 6 C-8.14768036 14.3950606 -9.18562823 22.66120057 -10.45703125 30.94921875 C-11.69014867 39.58104072 -12.26616939 48.31437144 -13 57 C-13.33 57 -13.66 57 -14 57 C-14.02526648 49.47030348 -14.04283141 41.9406178 -14.05493164 34.41088867 C-14.0599737 31.84708243 -14.06680714 29.28327909 -14.07543945 26.71948242 C-14.08751064 23.04344979 -14.09322942 19.36745502 -14.09765625 15.69140625 C-14.10281754 14.53725723 -14.10797882 13.38310822 -14.11329651 12.19398499 C-14.11337204 11.13296066 -14.11344757 10.07193634 -14.11352539 8.97875977 C-14.115746 8.03944107 -14.11796661 7.10012238 -14.12025452 6.13233948 C-14 4 -14 4 -13 3 C-11.19481074 2.62911039 -9.38038572 2.30258696 -7.5625 2 C-3.65317462 1.39444481 -3.65317462 1.39444481 0 0 Z " fill="#FDC11F" transform="translate(138,167)"/>
<path d="M0 0 C35.31 0 70.62 0 107 0 C107 0.33 107 0.66 107 1 C96.70841098 1.17160235 86.41674591 1.33809369 76.125 1.5 C74.9928091 1.51781588 74.9928091 1.51781588 73.83774567 1.53599167 C51.55729943 1.88508618 29.28364304 2.15309373 7 2 C7 6.29 7 10.58 7 15 C19.21 15 31.42 15 44 15 C44 15.33 44 15.66 44 16 C31.46 16 18.92 16 6 16 C6 11.38 6 6.76 6 2 C4.02 2 2.04 2 0 2 C0 1.34 0 0.68 0 0 Z " fill="#B36504" transform="translate(62,389)"/>
<path d="M0 0 C0.66 0 1.32 0 2 0 C3.82754904 3.65509808 3.18474067 7.97689251 3.1875 12 C3.19974609 12.90878906 3.21199219 13.81757813 3.22460938 14.75390625 C3.23794852 21.005517 2.68240034 26.9573464 1 33 C0.505 33.495 0.505 33.495 0 34 C-1.65 34 -3.3 34 -5 34 C-4.34 24.76 -3.68 15.52 -3 6 C-3.66 5.67 -4.32 5.34 -5 5 C-4.01 4.67 -3.02 4.34 -2 4 C-0.79117904 1.99983534 -0.79117904 1.99983534 0 0 Z " fill="#EA9B10" transform="translate(155,117)"/>
<path d="M0 0 C15.84 0 31.68 0 48 0 C48 1.32 48 2.64 48 4 C32.16 4 16.32 4 0 4 C0 2.68 0 1.36 0 0 Z " fill="#FCEEA7" transform="translate(121,405)"/>
<path d="M0 0 C0.66 0 1.32 0 2 0 C2.00257812 0.66386719 2.00515625 1.32773438 2.0078125 2.01171875 C2.11851533 7.24557937 2.11851533 7.24557937 4.40234375 11.77734375 C6.21303982 13.29931277 6.21303982 13.29931277 9 15 C9.144375 13.88625 9.28875 12.7725 9.4375 11.625 C10 8 10 8 11 6 C11.99 6.33 12.98 6.66 14 7 C17.44419134 22.74487472 17.44419134 22.74487472 17 30 C14.01873804 29.11367888 12.36903763 28.52948877 10.5625 25.9375 C10.046875 24.968125 9.53125 23.99875 9 23 C8.03916948 21.44683929 7.05826936 19.90599538 6.0625 18.375 C5.33740234 17.24191406 5.33740234 17.24191406 4.59765625 16.0859375 C3.09441457 13.89916844 3.09441457 13.89916844 0.828125 12.51171875 C-1 11 -1 11 -1.42578125 8.80859375 C-1.38839844 8.02613281 -1.35101563 7.24367187 -1.3125 6.4375 C-1.28800781 5.65246094 -1.26351562 4.86742187 -1.23828125 4.05859375 C-1 2 -1 2 0 0 Z " fill="#E2910D" transform="translate(100,170)"/>
<path d="M0 0 C3.12492251 -0.05791844 6.24970766 -0.09356746 9.375 -0.125 C10.26445312 -0.14175781 11.15390625 -0.15851563 12.0703125 -0.17578125 C12.92109375 -0.18222656 13.771875 -0.18867188 14.6484375 -0.1953125 C15.82672119 -0.21102295 15.82672119 -0.21102295 17.02880859 -0.22705078 C19 0 19 0 21 2 C22.97760261 2.32956935 22.97760261 2.32956935 25.26611328 2.31884766 C26.14687531 2.33871735 27.02763733 2.35858704 27.93508911 2.37905884 C28.88721283 2.39061005 29.83933655 2.40216125 30.8203125 2.4140625 C31.79410858 2.43342865 32.76790466 2.4527948 33.77120972 2.4727478 C36.88905003 2.53264558 40.00692706 2.57896971 43.125 2.625 C45.23569341 2.66317039 47.34637108 2.70222156 49.45703125 2.7421875 C54.63788144 2.83835527 59.81882597 2.92337264 65 3 C65 3.66 65 4.32 65 5 C43.55 5 22.1 5 0 5 C0 3.35 0 1.7 0 0 Z " fill="#EACE6D" transform="translate(121,383)"/>
<path d="M0 0 C1.76953125 0.890625 1.76953125 0.890625 3.8125 2.25 C9.78910638 5.80232068 16.22375669 6.8143984 23 8 C22.39671875 8.28617188 21.7934375 8.57234375 21.171875 8.8671875 C18.49131306 10.26532232 16.31707939 12.06910051 14 14 C13.34 13.67 12.68 13.34 12 13 C11.34 15.97 10.68 18.94 10 22 C6.41056336 20.80352112 5.19126816 20.09799981 3 17 C2.65724103 13.64096207 2.76886019 10.36436832 3 7 C2.34 7 1.68 7 1 7 C0.67 6.01 0.34 5.02 0 4 C-1.49985609 2.33289654 -1.49985609 2.33289654 -3 1 C-2.01 0.67 -1.02 0.34 0 0 Z " fill="#C97401" transform="translate(99,163)"/>
<path d="M0 0 C1.8125 0.1875 1.8125 0.1875 4 1 C7.08805567 5.02043962 7.38144813 8.12891206 7.3125 13.125 C7.30863281 14.34445312 7.30476562 15.56390625 7.30078125 16.8203125 C7 20 7 20 5 23 C2.29750549 22.62724214 1.20064865 22.21551151 -0.6875 20.1875 C-2.85656966 16.5723839 -3.17366282 13.17309943 -3.25 9 C-3.27578125 8.154375 -3.3015625 7.30875 -3.328125 6.4375 C-2.93637521 3.52735872 -1.91578046 2.1779399 0 0 Z " fill="#FDF1AC" transform="translate(137,274)"/>
<path d="M0 0 C2.68026634 1.73855114 3.76405507 3.04760916 4.53515625 6.16015625 C5.41473843 12.37789235 5.41473843 12.37789235 3 16 C-1.05445642 16.43132515 -2.54970958 16.30019361 -6 14 C-9.62377088 9.57094671 -9.32001056 5.44017945 -9 0 C-5.41563853 -1.19478716 -3.63093708 -0.96330984 0 0 Z " fill="#FDF1AA" transform="translate(132,21)"/>
<path d="M0 0 C0.33 0 0.66 0 1 0 C2.68405871 9.89816055 3.31060046 19.39297397 3.25 29.4375 C3.25773438 30.74654297 3.26546875 32.05558594 3.2734375 33.40429688 C3.27085937 34.67208984 3.26828125 35.93988281 3.265625 37.24609375 C3.26336914 38.37716553 3.26111328 39.5082373 3.25878906 40.67358398 C2.72865204 47.48784528 1.18745788 51.49510237 -4 56 C-4.66 55.67 -5.32 55.34 -6 55 C-5.72285156 54.11957031 -5.44570312 53.23914063 -5.16015625 52.33203125 C-4.79792969 51.17058594 -4.43570313 50.00914062 -4.0625 48.8125 C-3.70285156 47.66394531 -3.34320313 46.51539063 -2.97265625 45.33203125 C-1.31234205 39.64428824 -0.8097418 34.33210417 -0.68359375 28.41796875 C-0.66281265 27.60378983 -0.64203156 26.7896109 -0.62062073 25.95075989 C-0.55550537 23.36308821 -0.49641792 20.77531947 -0.4375 18.1875 C-0.39427858 16.42772455 -0.35066315 14.66795872 -0.30664062 12.90820312 C-0.1998632 8.60556691 -0.09848982 4.30283357 0 0 Z " fill="#F0BF31" transform="translate(150,190)"/>
<path d="M0 0 C5.875 1.875 5.875 1.875 7 3 C8.68183948 3.23287008 10.3712416 3.41264166 12.0625 3.5625 C13.44115234 3.68818359 13.44115234 3.68818359 14.84765625 3.81640625 C15.91306641 3.90728516 15.91306641 3.90728516 17 4 C17 4.33 17 4.66 17 5 C13.04 5 9.08 5 5 5 C5.165 5.86625 5.33 6.7325 5.5 7.625 C6.39266231 13.69761822 6.07639812 19.87966132 6 26 C5.01 26.33 4.02 26.66 3 27 C-1.65353533 19.14715913 -2.39576658 10.49608657 -0.48046875 1.58203125 C-0.32191406 1.05996094 -0.16335937 0.53789063 0 0 Z " fill="#FCBF1E" transform="translate(90,117)"/>
<path d="M0 0 C1.14949588 0.78633922 2.29448989 1.57926258 3.4375 2.375 C4.39462891 3.03628906 4.39462891 3.03628906 5.37109375 3.7109375 C7 5 7 5 8 7 C8.40676415 12.89808016 7.83619819 17.73610953 5 23 C3.39453125 24.73046875 3.39453125 24.73046875 2 26 C-1.86382803 18.27234393 -1.5027986 10.45088408 -1 2 C-0.67 1.34 -0.34 0.68 0 0 Z " fill="#AC5D01" transform="translate(75,87)"/>
<path d="M0 0 C0.33 0 0.66 0 1 0 C1.44041451 5.37305699 1.44041451 5.37305699 1 8 C-1.5 10 -1.5 10 -4 11 C-0.7 11.33 2.6 11.66 6 12 C6.33 9.69 6.66 7.38 7 5 C10.5718623 8.5718623 11 13.10186234 11 18 C4.4 18 -2.2 18 -9 18 C-9 13 -9 13 -7.28515625 10.9375 C-6.55167969 10.298125 -5.81820312 9.65875 -5.0625 9 C-1.76322347 6.11386039 -0.48192375 4.40616002 0 0 Z " fill="#B76803" transform="translate(116,365)"/>
<path d="M0 0 C0.02707139 2.24993359 0.04642829 4.49996095 0.0625 6.75 C0.07410156 8.00296875 0.08570313 9.2559375 0.09765625 10.546875 C0.02021027 13.28536501 -0.17219185 15.41880293 -1 18 C-4.03458017 17.67193728 -5.56976162 17.46210789 -7.6875 15.1875 C-8.3371875 14.1046875 -8.3371875 14.1046875 -9 13 C-9.5878125 12.071875 -9.5878125 12.071875 -10.1875 11.125 C-11.24857354 8.34988458 -11.13379678 5.94352912 -11 3 C-10.05125 2.690625 -9.1025 2.38125 -8.125 2.0625 C-2.05882353 0 -2.05882353 0 0 0 Z " fill="#FDF0A9" transform="translate(172,89)"/>
<path d="M0 0 C8.25 0 16.5 0 25 0 C25 4.29 25 8.58 25 13 C22.03 13 19.06 13 16 13 C16 9.04 16 5.08 16 1 C11.05 1 6.1 1 1 1 C1 5.29 1 9.58 1 14 C0.67 14 0.34 14 0 14 C0 9.38 0 4.76 0 0 Z " fill="#DB8B0B" transform="translate(106,391)"/>
<path d="M0 0 C1.9375 0.8125 1.9375 0.8125 4 2 C5.19028338 5.57085014 5.18398398 8.8460683 5.1875 12.5625 C5.19974609 13.24763672 5.21199219 13.93277344 5.22460938 14.63867188 C5.22987533 16.42734112 5.12200021 18.21548848 5 20 C4.34 20.66 3.68 21.32 3 22 C-1.55555556 21.44444444 -1.55555556 21.44444444 -3 20 C-3.67116299 12.77209093 -2.77119683 6.6805638 0 0 Z " fill="#B16001" transform="translate(94,96)"/>
<path d="M0 0 C7.59 0 15.18 0 23 0 C23 1.98 23 3.96 23 6 C15.41 6 7.82 6 0 6 C0 4.02 0 2.04 0 0 Z " fill="#FEEEA2" transform="translate(138,395)"/>
<path d="M0 0 C-0.35107529 3.68629054 -0.74221077 5.67190462 -3.0625 8.625 C-5.93040761 13.62071003 -5.32816426 18.36651355 -5 24 C-5.33 23.34 -5.66 22.68 -6 22 C-10.29690839 24.33732425 -10.29690839 24.33732425 -12.875 28.25 C-12.91625 28.8275 -12.9575 29.405 -13 30 C-20.50769231 29.38461538 -20.50769231 29.38461538 -23 27.4375 C-23.33 26.963125 -23.66 26.48875 -24 26 C-21.42936552 23.42936552 -19.52692914 23.75430737 -16.04296875 23.41796875 C-12.99913745 22.79523462 -11.18939554 21.12097692 -9 19 C-9.33 18.34 -9.66 17.68 -10 17 C-9.34 16.67 -8.68 16.34 -8 16 C-7.72186981 13.84074219 -7.72186981 13.84074219 -7.6875 11.3125 C-7.33294845 6.73615868 -5.74863471 0 0 0 Z " fill="#E59710" transform="translate(137,47)"/>
<path d="M0 0 C2.475 0.495 2.475 0.495 5 1 C5.02913072 5.37498593 5.04684286 9.74994674 5.0625 14.125 C5.07087891 15.3625 5.07925781 16.6 5.08789062 17.875 C5.09111328 19.07382813 5.09433594 20.27265625 5.09765625 21.5078125 C5.10289307 22.60754395 5.10812988 23.70727539 5.11352539 24.84033203 C5.0008558 27.97618105 4.58626376 30.92059383 4 34 C3.67 34 3.34 34 3 34 C0.76993734 22.5311063 -0.42981467 11.68459143 0 0 Z " fill="#AD5F01" transform="translate(78,115)"/>
<path d="M0 0 C1.65 0 3.3 0 5 0 C7 2 7 2 7.23046875 5.44140625 C7.22647911 6.81517304 7.21173177 8.18894114 7.1875 9.5625 C7.18685547 10.26052734 7.18621094 10.95855469 7.18554688 11.67773438 C7.14031158 16.85968842 7.14031158 16.85968842 6 18 C4.02 18 2.04 18 0 18 C0 12.06 0 6.12 0 0 Z " fill="#FDE795" transform="translate(127,127)"/>
<path d="M0 0 C0.66 0 1.32 0 2 0 C2.0580476 3.27075883 2.09361165 6.54138524 2.125 9.8125 C2.14175781 10.74126953 2.15851563 11.67003906 2.17578125 12.62695312 C2.18222656 13.51962891 2.18867187 14.41230469 2.1953125 15.33203125 C2.20578613 16.15421143 2.21625977 16.9763916 2.22705078 17.82348633 C2 20 2 20 0 23 C-1.32 23 -2.64 23 -4 23 C-4.43995881 14.40858218 -4.46309065 7.53146548 0 0 Z " fill="#FDE894" transform="translate(122,99)"/>
<path d="M0 0 C0.25 2.25 0.25 2.25 0 5 C-1.875 7.3125 -1.875 7.3125 -4 9 C-4.66 9 -5.32 9 -6 9 C-6.144375 9.928125 -6.28875 10.85625 -6.4375 11.8125 C-8.10046565 17.79917635 -12.75968142 22.6251937 -17 27 C-17.66 27 -18.32 27 -19 27 C-19 24.69 -19 22.38 -19 20 C-18.40832031 19.95101562 -17.81664062 19.90203125 -17.20703125 19.8515625 C-13.91917079 18.58297209 -13.28773178 16.45325015 -11.6875 13.375 C-4.2977327 0 -4.2977327 0 0 0 Z " fill="#D07C07" transform="translate(149,180)"/>
<path d="M0 0 C3.48571662 3.15146982 4.38881189 6.43365206 5 11 C5.15391439 15.33939267 5.11908226 19.66011323 5 24 C3.35 23.67 1.7 23.34 0 23 C-0.33 23.99 -0.66 24.98 -1 26 C-1 25.34 -1 24.68 -1 24 C-1.66 23.67 -2.32 23.34 -3 23 C-2.01 21.515 -2.01 21.515 -1 20 C-0.6349209 17.77868577 -0.6349209 17.77868577 -0.5859375 15.33203125 C-0.54726562 14.43935547 -0.50859375 13.54667969 -0.46875 12.62695312 C-0.4378125 11.69818359 -0.406875 10.76941406 -0.375 9.8125 C-0.33632812 8.87212891 -0.29765625 7.93175781 -0.2578125 6.96289062 C-0.16356813 4.6421229 -0.07795975 2.32136252 0 0 Z " fill="#BB6C07" transform="translate(124,99)"/>
<path d="M0 0 C5.28 0 10.56 0 16 0 C12.67768919 3.32231081 9.89710829 5.50585069 6 8 C4.87342686 8.7476349 3.74836691 9.49755613 2.625 10.25 C1.75875 10.8275 0.8925 11.405 0 12 C0 8.04 0 4.08 0 0 Z " fill="#C87301" transform="translate(100,128)"/>
<path d="M0 0 C2 1 2 1 3 3 C2.15695313 3.13277344 1.31390625 3.26554688 0.4453125 3.40234375 C-0.65039062 3.57894531 -1.74609375 3.75554687 -2.875 3.9375 C-3.96554688 4.11152344 -5.05609375 4.28554687 -6.1796875 4.46484375 C-8.93821546 4.85551159 -8.93821546 4.85551159 -11 6 C-11.66 5.67 -12.32 5.34 -13 5 C-12.96447021 6.29099609 -12.92894043 7.58199219 -12.89233398 8.91210938 C-12.76140606 13.72771621 -12.63844602 18.54349995 -12.51782227 23.359375 C-12.46463896 25.43885832 -12.40933013 27.51828846 -12.35180664 29.59765625 C-12.26923077 32.59623755 -12.19444363 35.59493051 -12.12109375 38.59375 C-12.09405869 39.51490601 -12.06702362 40.43606201 -12.03916931 41.38513184 C-11.91757438 46.71154419 -12.2014961 51.730412 -13 57 C-13.33 57 -13.66 57 -14 57 C-14.02526648 49.47030348 -14.04283141 41.9406178 -14.05493164 34.41088867 C-14.0599737 31.84708243 -14.06680714 29.28327909 -14.07543945 26.71948242 C-14.08751064 23.04344979 -14.09322942 19.36745502 -14.09765625 15.69140625 C-14.10281754 14.53725723 -14.10797882 13.38310822 -14.11329651 12.19398499 C-14.11337204 11.13296066 -14.11344757 10.07193634 -14.11352539 8.97875977 C-14.115746 8.03944107 -14.11796661 7.10012238 -14.12025452 6.13233948 C-14 4 -14 4 -13 3 C-11.19481074 2.62911039 -9.38038572 2.30258696 -7.5625 2 C-3.65317462 1.39444481 -3.65317462 1.39444481 0 0 Z " fill="#F5B81A" transform="translate(138,167)"/>
<path d="M0 0 C3.10385211 -0.11613204 6.20714662 -0.18722029 9.3125 -0.25 C10.19357422 -0.28351563 11.07464844 -0.31703125 11.98242188 -0.3515625 C12.82998047 -0.36445313 13.67753906 -0.37734375 14.55078125 -0.390625 C15.33106689 -0.41157227 16.11135254 -0.43251953 16.9152832 -0.45410156 C19 0 19 0 22 4 C11.11 4.495 11.11 4.495 0 5 C0 3.35 0 1.7 0 0 Z " fill="#FAEAA3" transform="translate(121,383)"/>
<path d="M0 0 C2.97 0 5.94 0 9 0 C8.67 3.63 8.34 7.26 8 11 C3 11 3 11 0 9 C-0.41137202 5.96133201 -0.13193156 3.07840297 0 0 Z " fill="#FBBF1E" transform="translate(138,128)"/>
<path d="M0 0 C1.640625 1.83203125 1.640625 1.83203125 1.640625 6.83203125 C-5.289375 6.33703125 -5.289375 6.33703125 -12.359375 5.83203125 C-12.689375 3.85203125 -13.019375 1.87203125 -13.359375 -0.16796875 C-11.61223267 -0.41799084 -9.86138359 -0.64220069 -8.109375 -0.85546875 C-7.13484375 -0.98308594 -6.1603125 -1.11070312 -5.15625 -1.2421875 C-2.359375 -1.16796875 -2.359375 -1.16796875 0 0 Z " fill="#E59A14" transform="translate(139.359375,377.16796875)"/>
<path d="M0 0 C0.71749446 5.97912053 0.71749446 5.97912053 -1.265625 8.80078125 C-2.78351912 10.34446483 -4.23189224 11.74949891 -6 13 C-6.66 13 -7.32 13 -8 13 C-8.66 9.7 -9.32 6.4 -10 3 C-3.375 0 -3.375 0 0 0 Z " fill="#FDEFA8" transform="translate(146,172)"/>
<path d="M0 0 C1.98 0 3.96 0 6 0 C6 4.62 6 9.24 6 14 C4.02 14 2.04 14 0 14 C0 9.38 0 4.76 0 0 Z " fill="#E6960E" transform="translate(62,391)"/>
<path d="M0 0 C9.9 0 19.8 0 30 0 C29.67 0.66 29.34 1.32 29 2 C18.79464781 4.68387509 9.68269094 5.22517423 0 1 C0 0.67 0 0.34 0 0 Z " fill="#D38003" transform="translate(109,87)"/>
<path d="M0 0 C2.97 0.99 5.94 1.98 9 3 C8.34 6.3 7.68 9.6 7 13 C3.48597373 11.82865791 2.20740681 10.96858157 0 8 C-0.34278985 5.24186016 -0.18643002 2.7964503 0 0 Z " fill="#A65802" transform="translate(102,172)"/>
<path d="M0 0 C0 1.65 0 3.3 0 5 C-0.7425 5.12375 -1.485 5.2475 -2.25 5.375 C-4.94132524 5.84787678 -4.94132524 5.84787678 -6.875 7.0625 C-10.03100456 8.45485495 -12.59529738 8.3039913 -16 8 C-18.4375 6.5 -18.4375 6.5 -20 5 C-17.75920676 2.75920676 -13.01386411 3.03733231 -9.98046875 2.59765625 C-6.2821464 1.85605295 -3.77780545 0 0 0 Z " fill="#D08008" transform="translate(148,167)"/>
<path d="M0 0 C1.16781006 0.00523682 2.33562012 0.01047363 3.53881836 0.01586914 C4.79887695 0.0190918 6.05893555 0.02231445 7.35717773 0.02563477 C8.6976732 0.03399136 10.03816799 0.04245632 11.37866211 0.05102539 C12.72306153 0.05603879 14.06746271 0.06060197 15.41186523 0.06469727 C18.71334151 0.07653051 22.01473014 0.09301568 25.31616211 0.11352539 C22.87701719 2.55267031 22.1016978 2.40015062 18.74584961 2.52758789 C17.84995117 2.56625977 16.95405273 2.60493164 16.03100586 2.64477539 C15.09385742 2.67571289 14.15670898 2.70665039 13.19116211 2.73852539 C12.2462793 2.77719727 11.30139648 2.81586914 10.32788086 2.85571289 C7.99083836 2.95013885 5.6538071 3.03570933 3.31616211 3.11352539 C2.98616211 5.09352539 2.65616211 7.07352539 2.31616211 9.11352539 C1.86241211 8.45352539 1.40866211 7.79352539 0.94116211 7.11352539 C0.40491211 6.45352539 -0.13133789 5.79352539 -0.68383789 5.11352539 C-1.34383789 5.11352539 -2.00383789 5.11352539 -2.68383789 5.11352539 C-3.24633789 3.17602539 -3.24633789 3.17602539 -3.68383789 1.11352539 C-2.68383789 0.11352539 -2.68383789 0.11352539 0 0 Z " fill="#FDC21E" transform="translate(135.683837890625,391.886474609375)"/>
<path d="M0 0 C4.62 0 9.24 0 14 0 C14 1.65 14 3.3 14 5 C9.05 5 4.1 5 -1 5 C-0.67 3.35 -0.34 1.7 0 0 Z " fill="#F9BD1D" transform="translate(107,383)"/>
<path d="M0 0 C0.66 0.33 1.32 0.66 2 1 C1.34 4.3 0.68 7.6 0 11 C-3.63 11 -7.26 11 -11 11 C-10.01 9.68 -9.02 8.36 -8 7 C-7.01 7 -6.02 7 -5 7 C-5 5.35 -5 3.7 -5 2 C-3.35 2 -1.7 2 0 2 C0 1.34 0 0.68 0 0 Z " fill="#E7960F" transform="translate(122,366)"/>
<path d="M0 0 C5.61 0 11.22 0 17 0 C17.33 1.32 17.66 2.64 18 4 C12.06 4 6.12 4 0 4 C0 2.68 0 1.36 0 0 Z " fill="#F9BF1F" transform="translate(169,405)"/>
<path d="M0 0 C0.66 0 1.32 0 2 0 C1.37084903 7.67028737 0.70900858 15.33667323 0 23 C-1.32 23 -2.64 23 -4 23 C-3.7221455 19.72783887 -3.42534437 16.4576674 -3.125 13.1875 C-3.04636719 12.25873047 -2.96773437 11.32996094 -2.88671875 10.37304688 C-2.80292969 9.48037109 -2.71914062 8.58769531 -2.6328125 7.66796875 C-2.55949707 6.84578857 -2.48618164 6.0236084 -2.41064453 5.17651367 C-2 3 -2 3 0 0 Z " fill="#B96601" transform="translate(149,127)"/>
<path d="M0 0 C0.56203125 0.32742187 1.1240625 0.65484375 1.703125 0.9921875 C4.26859964 2.11785494 5.96842277 2.2068111 8.75 2.125 C9.94882813 2.09792969 9.94882813 2.09792969 11.171875 2.0703125 C12.07679688 2.03550781 12.07679688 2.03550781 13 2 C7 8 7 8 3.4375 8.0625 C2.303125 8.041875 1.16875 8.02125 0 8 C0 5.36 0 2.72 0 0 Z " fill="#A45802" transform="translate(116,63)"/>
<path d="M0 0 C0.66 0 1.32 0 2 0 C2.00257812 0.66386719 2.00515625 1.32773438 2.0078125 2.01171875 C2.11851533 7.24557937 2.11851533 7.24557937 4.40234375 11.77734375 C6.21303982 13.29931277 6.21303982 13.29931277 9 15 C8.67 16.65 8.34 18.3 8 20 C7.443125 19.2575 6.88625 18.515 6.3125 17.75 C4.15557603 14.90570939 4.15557603 14.90570939 1.25 13.25 C-1.38281097 10.61718903 -1.34066969 9.95679591 -1.375 6.375 C-1.26501932 3.82852427 -1.14363112 2.28726223 0 0 Z " fill="#DA8B0D" transform="translate(100,170)"/>
<path d="M0 0 C0 3 0 3 -2 6 C0.31 6 2.62 6 5 6 C5 6.33 5 6.66 5 7 C2.39576408 7.02697137 -0.20819244 7.04682489 -2.8125 7.0625 C-3.55048828 7.07087891 -4.28847656 7.07925781 -5.04882812 7.08789062 C-8.29922068 7.10259828 -10.89404895 7.03531702 -14 6 C-14 7.98 -14 9.96 -14 12 C-14.33 12 -14.66 12 -15 12 C-15.125 8.625 -15.125 8.625 -15 5 C-12.38058355 2.38058355 -10.57027521 2.45275655 -6.9375 1.9375 C-3.15136337 1.68732529 -3.15136337 1.68732529 0 0 Z " fill="#E1A015" transform="translate(110,117)"/>
<path d="M0 0 C0 2.97 0 5.94 0 9 C-2.31 8.67 -4.62 8.34 -7 8 C-7 4 -7 4 -5.1875 1.75 C-3 0 -3 0 0 0 Z " fill="#A85B03" transform="translate(112,152)"/>
<path d="M0 0 C4.29 0 8.58 0 13 0 C13 1.32 13 2.64 13 4 C8.71 4 4.42 4 0 4 C0 2.68 0 1.36 0 0 Z " fill="#F6BB1E" transform="translate(61,405)"/>
<path d="M0 0 C0.66 2.31 1.32 4.62 2 7 C-2.455 7.495 -2.455 7.495 -7 8 C-6.65930765 4.84859577 -6.41923159 3.39218439 -4.0625 1.1875 C-2 0 -2 0 0 0 Z " fill="#FCE796" transform="translate(131,69)"/>
<path d="M0 0 C1.32 0.33 2.64 0.66 4 1 C5.44729968 9.00374162 5.44729968 9.00374162 3.625 13.0625 C3.08875 13.701875 2.5525 14.34125 2 15 C1.67 15 1.34 15 1 15 C0.67 10.05 0.34 5.1 0 0 Z " fill="#A65802" transform="translate(96,127)"/>
<path d="M0 0 C-0.478587 5.02516349 -2.03252989 7.95344986 -5 12 C-5.66 12.99 -6.32 13.98 -7 15 C-7.48279288 10.17207121 -7.82060585 6.34532299 -4.625 2.4375 C-2 0 -2 0 0 0 Z " fill="#EDA613" transform="translate(137,47)"/>
<path d="M0 0 C5.61 0 11.22 0 17 0 C17 5.28 17 10.56 17 16 C16.67 16 16.34 16 16 16 C16 12.04 16 8.08 16 4 C14.68 4 13.36 4 12 4 C11.67 3.34 11.34 2.68 11 2 C8.41394668 1.5316735 8.41394668 1.5316735 5.4375 1.375 C3.91962891 1.26285156 3.91962891 1.26285156 2.37109375 1.1484375 C1.19740234 1.07496094 1.19740234 1.07496094 0 1 C0 0.67 0 0.34 0 0 Z " fill="#A86707" transform="translate(169,388)"/>
<path d="M0 0 C0.33 2.97 0.66 5.94 1 9 C0.67 8.34 0.34 7.68 0 7 C-0.598125 7.495 -1.19625 7.99 -1.8125 8.5 C-6.48336634 10.69805475 -10.9195716 10.24023041 -16 10 C-16 9.67 -16 9.34 -16 9 C-14.1746875 8.87625 -14.1746875 8.87625 -12.3125 8.75 C-8.21534129 8.26241628 -5.99860092 6.90489464 -3 4 C-3.33 3.34 -3.66 2.68 -4 2 C-1 0 -1 0 0 0 Z " fill="#D3880F" transform="translate(131,62)"/>
<path d="M0 0 C3.46365398 1.15455133 4.19137152 1.90559139 6 5 C6.29296875 7.578125 6.29296875 7.578125 6.1875 10.25 C6.16042969 11.14203125 6.13335937 12.0340625 6.10546875 12.953125 C6.07066406 13.62859375 6.03585938 14.3040625 6 15 C5.70222656 14.37738281 5.40445313 13.75476562 5.09765625 13.11328125 C4.07530596 10.94666835 4.07530596 10.94666835 2.4375 9.1875 C0.49054811 6.22474713 0.33509311 3.4849683 0 0 Z " fill="#E49910" transform="translate(111,47)"/>
<path d="M0 0 C1.9375 0.375 1.9375 0.375 4 1 C4.33 1.66 4.66 2.32 5 3 C3.35 3 1.7 3 0 3 C0 8.61 0 14.22 0 20 C-3.20752745 16.79247255 -3.16943852 13.40402767 -3.25 9 C-3.27578125 8.154375 -3.3015625 7.30875 -3.328125 6.4375 C-2.93637521 3.52735872 -1.91578046 2.1779399 0 0 Z " fill="#FEE381" transform="translate(137,274)"/>
<path d="M0 0 C5.61 0 11.22 0 17 0 C14.36101762 2.63898238 12.375986 2.92016463 8.7109375 3.1328125 C7.55464844 3.12894531 7.55464844 3.12894531 6.375 3.125 C5.59898438 3.12757812 4.82296875 3.13015625 4.0234375 3.1328125 C2 3 2 3 0 2 C0 1.34 0 0.68 0 0 Z " fill="#D17C04" transform="translate(115,88)"/>
<path d="M0 0 C0.99 0 1.98 0 3 0 C3.33 4.29 3.66 8.58 4 13 C2.68 13 1.36 13 0 13 C0 8.71 0 4.42 0 0 Z " fill="#E7970E" transform="translate(182,392)"/>
<path d="M0 0 C2.49505962 2.49505962 2.35948376 3.67328888 2.625 7.125 C2.69976562 8.03507812 2.77453125 8.94515625 2.8515625 9.8828125 C2.90054688 10.58148438 2.94953125 11.28015625 3 12 C1.35 12 -0.3 12 -2 12 C-1.85904936 10.3745692 -1.71207913 8.74965949 -1.5625 7.125 C-1.48128906 6.22007812 -1.40007812 5.31515625 -1.31640625 4.3828125 C-1 2 -1 2 0 0 Z " fill="#9E5703" transform="translate(123,370)"/>
<path d="M0 0 C0.33 0 0.66 0 1 0 C1.44041451 5.37305699 1.44041451 5.37305699 1 8 C-1.5 10 -1.5 10 -4 11 C-0.7 11.33 2.6 11.66 6 12 C6 12.33 6 12.66 6 13 C1.71 13 -2.58 13 -7 13 C-5 9 -5 9 -2.9375 7.0625 C-0.71029591 4.69160532 -0.35370563 3.18335068 0 0 Z " fill="#C27A09" transform="translate(116,365)"/>
<path d="M0 0 C1.67542976 0.28604898 3.34385343 0.61781233 5 1 C5 1.99 5 2.98 5 4 C-4.41002278 4.3690205 -4.41002278 4.3690205 -9 2 C-9 1.67 -9 1.34 -9 1 C-7.700625 1.020625 -6.40125 1.04125 -5.0625 1.0625 C-3.70834367 1.08399454 -2.35243917 1.07148199 -1 1 C-0.67 0.67 -0.34 0.34 0 0 Z " fill="#A55702" transform="translate(124,122)"/>
<path d="M0 0 C0 4 0 4 -1 6 C-1.99 5.34 -2.98 4.68 -4 4 C-4 6.64 -4 9.28 -4 12 C-7.00617269 8.99382731 -6.59585316 6.17618402 -7 2 C-2.25 0 -2.25 0 0 0 Z " fill="#FAE28C" transform="translate(143,173)"/>
<path d="M0 0 C0.66 0 1.32 0 2 0 C2.0270043 1.45823212 2.04639787 2.91660675 2.0625 4.375 C2.07410156 5.18710938 2.08570312 5.99921875 2.09765625 6.8359375 C2 9 2 9 1 11 C0.34 11 -0.32 11 -1 11 C-1.0270043 9.54176788 -1.04639787 8.08339325 -1.0625 6.625 C-1.07410156 5.81289062 -1.08570312 5.00078125 -1.09765625 4.1640625 C-1 2 -1 2 0 0 Z " fill="#CE820B" transform="translate(100,170)"/>
<path d="M0 0 C0.66 0 1.32 0 2 0 C2.99 2.31 3.98 4.62 5 7 C4.34 7 3.68 7 3 7 C2.67 7.66 2.34 8.32 2 9 C0 7 0 7 -0.125 3.375 C-0.08375 2.26125 -0.0425 1.1475 0 0 Z " fill="#EFB21B" transform="translate(105,194)"/>
<path d="M0 0 C1.65 0 3.3 0 5 0 C4.67 0.99 4.34 1.98 4 3 C-0.95 3 -5.9 3 -11 3 C-11 2.67 -11 2.34 -11 2 C-7.37 2 -3.74 2 0 2 C0 1.34 0 0.68 0 0 Z " fill="#C3760A" transform="translate(129,124)"/>
<path d="M0 0 C0.66 0 1.32 0 2 0 C2 6.6 2 13.2 2 20 C1.67 20 1.34 20 1 20 C1 14.39 1 8.78 1 3 C0.34 3 -0.32 3 -1 3 C-0.67 2.01 -0.34 1.02 0 0 Z " fill="#F1D277" transform="translate(122,99)"/>
<path d="M0 0 C0.99 0 1.98 0 3 0 C3 2.31 3 4.62 3 7 C2.01 7 1.02 7 0 7 C-0.66 5.68 -1.32 4.36 -2 3 C-1.34 3 -0.68 3 0 3 C0 2.01 0 1.02 0 0 Z " fill="#FBE99B" transform="translate(143,172)"/>
<path d="M0 0 C0.66 0 1.32 0 2 0 C1.6875 1.875 1.6875 1.875 1 4 C-2.08888522 6.05925681 -2.70935927 6.2390374 -6.1875 6.125 C-8.0746875 6.063125 -8.0746875 6.063125 -10 6 C-10 5.67 -10 5.34 -10 5 C-8.906875 4.731875 -7.81375 4.46375 -6.6875 4.1875 C-3.26833673 3.08641352 -2.22408019 2.57525074 0 0 Z " fill="#E2AE1C" transform="translate(162,159)"/>
<path d="M0 0 C0.33 0 0.66 0 1 0 C1.33 2.97 1.66 5.94 2 9 C2.99 9.33 3.98 9.66 5 10 C5 11.32 5 12.64 5 14 C4.34 14 3.68 14 3 14 C-0.66641647 9.62850344 -0.31749488 5.39741292 0 0 Z " fill="#FDE993" transform="translate(123,21)"/>
<path d="M0 0 C0.33 0.66 0.66 1.32 1 2 C0.67 2.66 0.34 3.32 0 4 C0.99 3.67 1.98 3.34 3 3 C3.33 4.32 3.66 5.64 4 7 C2.35 6.67 0.7 6.34 -1 6 C-1.625 4.125 -1.625 4.125 -2 2 C-1.34 1.34 -0.68 0.68 0 0 Z " fill="#E7A615" transform="translate(78,83)"/>
<path d="M0 0 C0 0.66 0 1.32 0 2 C-3.46153846 5 -3.46153846 5 -6 5 C-6 5.66 -6 6.32 -6 7 C-4.02 7.495 -4.02 7.495 -2 8 C-3.65 8 -5.3 8 -7 8 C-6.65930765 4.84859577 -6.41923159 3.39218439 -4.0625 1.1875 C-2 0 -2 0 0 0 Z " fill="#FAD77B" transform="translate(131,69)"/>
<path d="M0 0 C0.99 0.66 1.98 1.32 3 2 C1.25 6.875 1.25 6.875 -1 8 C-1 7.34 -1 6.68 -1 6 C-1.66 5.67 -2.32 5.34 -3 5 C-2.01 3.35 -1.02 1.7 0 0 Z " fill="#D58613" transform="translate(138,192)"/>
<path d="M0 0 C0.33 0 0.66 0 1 0 C1.042721 1.66611905 1.04063832 3.33382885 1 5 C0 6 0 6 -2.5625 6.0625 C-3.7690625 6.0315625 -3.7690625 6.0315625 -5 6 C-3.35830472 3.97945196 -1.69088222 1.97956942 0 0 Z " fill="#C67605" transform="translate(148,180)"/>
<path d="M0 0 C3.3 0 6.6 0 10 0 C9.67 0.66 9.34 1.32 9 2 C6.35139573 2.59355614 3.70802678 2.74209269 1 3 C0.67 2.01 0.34 1.02 0 0 Z " fill="#DD8E0A" transform="translate(129,87)"/>
<path d="M0 0 C2.875 -0.1875 2.875 -0.1875 6 0 C6.66 0.99 7.32 1.98 8 3 C7.67 3.66 7.34 4.32 7 5 C6.01 4.67 5.02 4.34 4 4 C4 3.34 4 2.68 4 2 C2.35 2 0.7 2 -1 2 C-0.67 1.34 -0.34 0.68 0 0 Z " fill="#FDEC9A" transform="translate(145,96)"/>
<path d="M0 0 C0.99 0 1.98 0 3 0 C2.67 2.97 2.34 5.94 2 9 C0.11656068 5.23312136 -0.22057835 3.97041037 0 0 Z " fill="#F4B81C" transform="translate(124,367)"/>
<path d="M0 0 C0.66 0 1.32 0 2 0 C1.25 5.75 1.25 5.75 -1 8 C-2.2077558 4.37673261 -1.54311128 3.35853631 0 0 Z " fill="#DA9711" transform="translate(135,47)"/>
</svg>
